<svg version="1.1" xmlns="http://www.w3.org/2000/svg" xmlns:xlink="http://www.w3.org/1999/xlink" xmlns:ev="http://www.w3.org/2001/xml-events" width="580" height="480" viewBox="-40 -440 580 480"><path d="M 0,40 0,-40 3,40 3,-40 6,40 6,-40 9,40 9,-40 12,40 12,-40 15,40 15,-40 18,40 18,-40 21,40 21,-40 24,40 24,-40 27,40 27,-40 30,40 30,-40 33,40 33,-40 36,40 36,-40 39,40 39,-40 42,40 42,-40 45,40 45,-40 48,40 48,-40 51,40 51,-40 54,40 54,-40 57,40 57,-40 60,40 60,-40 63,40 63,-40 66,40 66,-40 69,40 69,-40 72,40 72,-40 75,40 75,-40 78,40 78,-40 81,40 81,-40 84,40 84,-40 87,40 87,-40 90,40 90,-40 93,40 93,-40 96,40 96,-40 99,40 99,-40 102,40 102,-40 105,40 105,-40 108,40 108,-40 111,40 111,-40 114,40 114,-40 117,40 117,-40 120,40 120,-40 123,40 123,-40 127,40 127,-40 130,40 130,-40 133,40 133,-40 136,40 136,-40 139,40 139,-40 142,40 142,-40 145,40 145,-40 148,40 148,-40 151,40 151,-40 154,40 154,-40 157,40 157,-40 160,40 160,-40 163,40 163,-40 166,40 166,-40 169,40 169,-40 172,40 172,-40 175,40 175,-40 178,40 178,-40 181,40 181,-40 184,40 184,-40 187,40 187,-40 190,40 190,-40 193,40 193,-40 196,40 196,-40 199,40 199,-40 202,40 202,-40 205,40 205,-40 208,40 208,-40 211,40 211,-40 214,40 214,-40 217,40 217,-40 220,40 220,-40 223,40 223,-40 226,40 226,-40 229,40 229,-40 232,40 232,-40 235,40 235,-40 238,40 238,-40 241,40 241,-40 244,40 244,-40 247,40 247,-40 250,40 250,-40 253,40 253,-40 256,40 256,-40 259,40 259,-40 262,40 262,-40 265,40 265,-40 268,40 268,-40 271,40 271,-40 274,40 274,-40 277,40 277,-40 280,40 280,-40 283,40 283,-40 286,40 286,-40 289,40 289,-40 292,40 292,-40 295,40 295,-40 298,40 298,-40 301,40 301,-40 304,40 304,-40 307,40 307,-40 310,40 310,-40 313,40 313,-40 316,40 316,-40 319,40 319,-40 322,40 322,-40 325,40 325,-40 328,40 328,-40 331,40 331,-40 334,40 334,-40 337,40 337,-40 340,40 340,-40 343,40 343,-40 346,40 346,-40 349,40 349,-40 352,40 352,-40 355,40 355,-40 358,40 358,-40 361,40 361,-40 364,40 364,-40 367,40 367,-40 370,40 370,-40 373,40 373,-40 377,40 377,-40 380,40 380,-40 383,40 383,-40 386,40 386,-40 389,40 389,-40 392,40 392,-40 395,40 395,-40 398,40 398,-40 401,40 401,-40 404,40 404,-40 407,40 407,-40 410,40 410,-40 413,40 413,-40 416,40 416,-40 419,40 419,-40 422,40 422,-40 425,40 425,-40 428,40 428,-40 431,40 431,-40 434,40 434,-40 437,40 437,-40 440,40 440,-40 443,40 443,-40 446,40 446,-40 449,40 449,-40 452,40 452,-40 455,40 455,-40 458,40 458,-40 461,40 461,-40 464,40 464,-40 467,40 467,-40 470,40 470,-40 473,40 473,-40 476,40 476,-40 479,40 479,-40 482,40 482,-40 485,40 485,-40 488,40 488,-40 491,40 491,-40 494,40 494,-40 497,40 497,-40 500,40 500,0 540,0 460,0 540,-3 460,-3 540,-6 460,-6 540,-9 460,-9 540,-12 460,-12 540,-15 460,-15 540,-18 460,-18 540,-21 460,-21 540,-24 460,-24 540,-27 460,-27 540,-30 460,-30 540,-33 460,-33 540,-36 460,-36 540,-39 460,-39 540,-42 460,-42 540,-45 460,-45 540,-48 460,-48 540,-51 460,-51 540,-54 460,-54 540,-57 460,-57 540,-60 460,-60 540,-63 460,-63 540,-66 460,-66 540,-69 460,-69 540,-72 460,-72 540,-75 460,-75 540,-78 460,-78 540,-81 460,-81 540,-84 460,-84 540,-87 460,-87 540,-90 460,-90 540,-93 460,-93 540,-96 460,-96 540,-99 460,-99 540,-102 460,-102 540,-105 460,-105 540,-108 460,-108 540,-111 460,-111 540,-114 460,-114 540,-117 460,-117 540,-120 460,-120 540,-123 460,-123 540,-126 460,-126 540,-129 460,-129 540,-132 460,-132 540,-135 460,-135 540,-138 460,-138 540,-141 460,-141 540,-144 460,-144 540,-147 460,-147 540,-150 460,-150 540,-153 460,-153 540,-156 460,-156 540,-159 460,-159 540,-162 460,-162 540,-165 460,-165 540,-168 460,-168 540,-171 460,-171 540,-174 460,-174 540,-177 460,-177 540,-180 460,-180 540,-183 460,-183 540,-186 460,-186 540,-189 460,-189 540,-192 460,-192 540,-195 460,-195 540,-198 460,-198 540,-202 460,-202 540,-205 460,-205 540,-208 460,-208 540,-211 460,-211 540,-214 460,-214 540,-217 460,-217 540,-220 460,-220 540,-223 460,-223 540,-226 460,-226 540,-229 460,-229 540,-232 460,-232 540,-235 460,-235 540,-238 460,-238 540,-241 460,-241 540,-244 460,-244 540,-247 460,-247 540,-250 460,-250 540,-253 460,-253 540,-256 460,-256 540,-259 460,-259 540,-262 460,-262 540,-265 460,-265 540,-268 460,-268 540,-271 460,-271 540,-274 460,-274 540,-277 460,-277 540,-280 460,-280 540,-283 460,-283 540,-286 460,-286 540,-289 460,-289 540,-292 460,-292 540,-295 460,-295 540,-298 460,-298 540,-301 460,-301 540,-304 460,-304 540,-307 460,-307 540,-310 460,-310 540,-313 460,-313 540,-316 460,-316 540,-319 460,-319 540,-322 460,-322 540,-325 460,-325 540,-328 460,-328 540,-331 460,-331 540,-334 460,-334 540,-337 460,-337 540,-340 460,-340 540,-343 460,-343 540,-346 460,-346 540,-349 460,-349 540,-352 460,-352 540,-355 460,-355 540,-358 460,-358 540,-361 460,-361 540,-364 460,-364 540,-367 460,-367 540,-370 460,-370 540,-373 460,-373 540,-376 460,-376 540,-379 460,-379 540,-382 460,-382 540,-385 460,-385 540,-388 460,-388 540,-391 460,-391 540,-394 460,-394 540,-397 460,-397 540,-400 500,-400 500,-440 500,-360 497,-440 497,-360 494,-440 494,-360 491,-440 491,-360 488,-440 488,-360 485,-440 485,-360 482,-440 482,-360 479,-440 479,-360 476,-440 476,-360 473,-440 473,-360 470,-440 470,-360 467,-440 467,-360 464,-440 464,-360 461,-440 461,-360 458,-440 458,-360 455,-440 455,-360 452,-440 452,-360 449,-440 449,-360 446,-440 446,-360 443,-440 443,-360 440,-440 440,-360 437,-440 437,-360 434,-440 434,-360 431,-440 431,-360 428,-440 428,-360 425,-440 425,-360 422,-440 422,-360 419,-440 419,-360 416,-440 416,-360 413,-440 413,-360 410,-440 410,-360 407,-440 407,-360 404,-440 404,-360 401,-440 401,-360 398,-440 398,-360 395,-440 395,-360 392,-440 392,-360 389,-440 389,-360 386,-440 386,-360 383,-440 383,-360 380,-440 380,-360 377,-440 377,-360 373,-440 373,-360 370,-440 370,-360 367,-440 367,-360 364,-440 364,-360 361,-440 361,-360 358,-440 358,-360 355,-440 355,-360 352,-440 352,-360 349,-440 349,-360 346,-440 346,-360 343,-440 343,-360 340,-440 340,-360 337,-440 337,-360 334,-440 334,-360 331,-440 331,-360 328,-440 328,-360 325,-440 325,-360 322,-440 322,-360 319,-440 319,-360 316,-440 316,-360 313,-440 313,-360 310,-440 310,-360 307,-440 307,-360 304,-440 304,-360 301,-440 301,-360 298,-440 298,-360 295,-440 295,-360 292,-440 292,-360 289,-440 289,-360 286,-440 286,-360 283,-440 283,-360 280,-440 280,-360 277,-440 277,-360 274,-440 274,-360 271,-440 271,-360 268,-440 268,-360 265,-440 265,-360 262,-440 262,-360 259,-440 259,-360 256,-440 256,-360 253,-440 253,-360 250,-440 250,-360 247,-440 247,-360 244,-440 244,-360 241,-440 241,-360 238,-440 238,-360 235,-440 235,-360 232,-440 232,-360 229,-440 229,-360 226,-440 226,-360 223,-440 223,-360 220,-440 220,-360 217,-440 217,-360 214,-440 214,-360 211,-440 211,-360 208,-440 208,-360 205,-440 205,-360 202,-440 202,-360 199,-440 199,-360 196,-440 196,-360 193,-440 193,-360 190,-440 190,-360 187,-440 187,-360 184,-440 184,-360 181,-440 181,-360 178,-440 178,-360 175,-440 175,-360 172,-440 172,-360 169,-440 169,-360 166,-440 166,-360 163,-440 163,-360 160,-440 160,-360 157,-440 157,-360 154,-440 154,-360 151,-440 151,-360 148,-440 148,-360 145,-440 145,-360 142,-440 142,-360 139,-440 139,-360 136,-440 136,-360 133,-440 133,-360 130,-440 130,-360 127,-440 127,-360 123,-440 123,-360 120,-440 120,-360 117,-440 117,-360 114,-440 114,-360 111,-440 111,-360 108,-440 108,-360 105,-440 105,-360 102,-440 102,-360 99,-440 99,-360 96,-440 96,-360 93,-440 93,-360 90,-440 90,-360 87,-440 87,-360 84,-440 84,-360 81,-440 81,-360 78,-440 78,-360 75,-440 75,-360 72,-440 72,-360 69,-440 69,-360 66,-440 66,-360 63,-440 63,-360 60,-440 60,-360 57,-440 57,-360 54,-440 54,-360 51,-440 51,-360 48,-440 48,-360 45,-440 45,-360 42,-440 42,-360 39,-440 39,-360 36,-440 36,-360 33,-440 33,-360 30,-440 30,-360 27,-440 27,-360 24,-440 24,-360 21,-440 21,-360 18,-440 18,-360 15,-440 15,-360 12,-440 12,-360 9,-440 9,-360 6,-440 6,-360 3,-440 3,-360 0,-440 0,-400 -40,-400 40,-400 -40,-397 40,-397 -40,-394 40,-394 -40,-391 40,-391 -40,-388 40,-388 -40,-385 40,-385 -40,-382 40,-382 -40,-379 40,-379 -40,-376 40,-376 -40,-373 40,-373 -40,-370 40,-370 -40,-367 40,-367 -40,-364 40,-364 -40,-361 40,-361 -40,-358 40,-358 -40,-355 40,-355 -40,-352 40,-352 -40,-349 40,-349 -40,-346 40,-346 -40,-343 40,-343 -40,-340 40,-340 -40,-337 40,-337 -40,-334 40,-334 -40,-331 40,-331 -40,-328 40,-328 -40,-325 40,-325 -40,-322 40,-322 -40,-319 40,-319 -40,-316 40,-316 -40,-313 40,-313 -40,-310 40,-310 -40,-307 40,-307 -40,-304 40,-304 -40,-301 40,-301 -40,-298 40,-298 -40,-295 40,-295 -40,-292 40,-292 -40,-289 40,-289 -40,-286 40,-286 -40,-283 40,-283 -40,-280 40,-280 -40,-277 40,-277 -40,-274 40,-274 -40,-271 40,-271 -40,-268 40,-268 -40,-265 40,-265 -40,-262 40,-262 -40,-259 40,-259 -40,-256 40,-256 -40,-253 40,-253 -40,-250 40,-250 -40,-247 40,-247 -40,-244 40,-244 -40,-241 40,-241 -40,-238 40,-238 -40,-235 40,-235 -40,-232 40,-232 -40,-229 40,-229 -40,-226 40,-226 -40,-223 40,-223 -40,-220 40,-220 -40,-217 40,-217 -40,-214 40,-214 -40,-211 40,-211 -40,-208 40,-208 -40,-205 40,-205 -40,-202 40,-202 -40,-198 40,-198 -40,-195 40,-195 -40,-192 40,-192 -40,-189 40,-189 -40,-186 40,-186 -40,-183 40,-183 -40,-180 40,-180 -40,-177 40,-177 -40,-174 40,-174 -40,-171 40,-171 -40,-168 40,-168 -40,-165 40,-165 -40,-162 40,-162 -40,-159 40,-159 -40,-156 40,-156 -40,-153 40,-153 -40,-150 40,-150 -40,-147 40,-147 -40,-144 40,-144 -40,-141 40,-141 -40,-138 40,-138 -40,-135 40,-135 -40,-132 40,-132 -40,-129 40,-129 -40,-126 40,-126 -40,-123 40,-123 -40,-120 40,-120 -40,-117 40,-117 -40,-114 40,-114 -40,-111 40,-111 -40,-108 40,-108 -40,-105 40,-105 -40,-102 40,-102 -40,-99 40,-99 -40,-96 40,-96 -40,-93 40,-93 -40,-90 40,-90 -40,-87 40,-87 -40,-84 40,-84 -40,-81 40,-81 -40,-78 40,-78 -40,-75 40,-75 -40,-72 40,-72 -40,-69 40,-69 -40,-66 40,-66 -40,-63 40,-63 -40,-60 40,-60 -40,-57 40,-57 -40,-54 40,-54 -40,-51 40,-51 -40,-48 40,-48 -40,-45 40,-45 -40,-42 40,-42 -40,-39 40,-39 -40,-36 40,-36 -40,-33 40,-33 -40,-30 40,-30 -40,-27 40,-27 -40,-24 40,-24 -40,-21 40,-21 -40,-18 40,-18 -40,-15 40,-15 -40,-12 40,-12 -40,-9 40,-9 -40,-6 40,-6 -40,-3 40,-3 -40,0 0,0" fill="none" stroke="#72fbd0" stroke-width="3" /><path d="M 11,-317 19,-323 14,-314 21,-320 16,-311 24,-318 18,-308 22,-312 17,-310 27,-313 18,-307 28,-310 19,-304 29,-307 20,-301 30,-304 21,-297 31,-300 22,-294 32,-297 23,-291 33,-294 24,-288 29,-289 25,-287 34,-291 26,-284 35,-288 27,-281 36,-285 28,-278 37,-282 29,-275 39,-279 31,-272 40,-275 32,-269 36,-271 32,-268 40,-274 35,-264 43,-270 37,-261 45,-267 39,-258 43,-261 39,-260 48,-262 39,-257 49,-260 40,-254 50,-257 41,-251 51,-254 42,-248 51,-251 43,-245 52,-248 43,-242 53,-245 44,-240 54,-242 45,-237 55,-239 46,-234 51,-235 46,-233 55,-237 47,-230 56,-234 48,-227 58,-231 50,-224 59,-228 51,-221 60,-225 52,-218 61,-222 53,-215 58,-217 53,-215 62,-220 55,-212 64,-217 57,-208 66,-213 59,-205 67,-210 60,-202 65,-205 60,-203 69,-207 61,-200 71,-204 63,-197 72,-201 64,-194 73,-198 65,-191 74,-195 66,-189 75,-192 67,-186 72,-188 70,-183 74,-192 73,-181 78,-190 77,-179 79,-184 84,-183 74,-185 85,-186 75,-188 85,-189 75,-191 86,-192 76,-194 86,-195 77,-196 87,-197 77,-199 88,-200 78,-202 88,-203 78,-205 89,-206 79,-208 89,-209 80,-211 90,-212 80,-214 90,-215 81,-217 91,-218 86,-219 91,-217 82,-221 92,-220 83,-224 93,-223 84,-227 94,-227 85,-230 96,-230 86,-233 97,-233 87,-236 98,-236 93,-238 88,-237 98,-239 89,-234 99,-236 90,-231 99,-233 90,-228 100,-230 91,-225 101,-227 91,-222 101,-223 92,-219 102,-220 93,-215 102,-217 93,-212 103,-214 94,-209 104,-211 94,-206 104,-208 95,-203 105,-205 96,-200 100,-201 96,-200 105,-203 97,-197 106,-200 98,-193 107,-197 99,-190 108,-193 100,-187 109,-190 101,-184 110,-187 102,-181 111,-184 103,-178 108,-179 104,-176 111,-183 106,-173 114,-180 109,-171 116,-178 111,-168 115,-172 119,-169 110,-174 121,-172 112,-177 122,-175 113,-180 123,-178 115,-182 125,-180 116,-185 126,-183 122,-185 118,-182 125,-189 121,-180 128,-187 123,-177 130,-185 125,-175 129,-179 133,-176 125,-181 135,-178 127,-184 137,-181 128,-187 138,-184 130,-189 140,-186 136,-189 140,-186 132,-192 142,-189 134,-195 144,-191 135,-197 145,-194 137,-200 147,-196 143,-199 147,-196 139,-202 149,-199 142,-205 152,-201 144,-208 154,-204 150,-207 145,-206 155,-209 146,-203 156,-206 147,-200 157,-203 148,-197 157,-200 149,-194 158,-197 149,-191 159,-194 150,-188 160,-191 151,-185 161,-188 152,-182 161,-185 153,-179 157,-180 160,-176 155,-185 163,-178 158,-187 167,-180 164,-185 162,-181 167,-189 165,-178 171,-186 169,-175 172,-179 168,-176 175,-183 170,-173 178,-180 173,-171 180,-178 175,-168 179,-172 175,-169 183,-175 177,-166 185,-172 180,-163 187,-169 182,-160 186,-163 188,-158 183,-167 192,-160 187,-169 195,-162 193,-167 197,-163 189,-170 199,-165 192,-173 201,-168 194,-175 204,-170 200,-174 197,-170 203,-178 199,-168 206,-176 202,-166 208,-174 204,-164 207,-168 209,-163 205,-173 213,-165 209,-174 216,-166 214,-171 218,-167 211,-174 220,-169 213,-177 223,-172 216,-179 225,-174 221,-178 226,-177 217,-179 227,-180 217,-182 228,-183 218,-185 228,-186 218,-188 229,-189 219,-191 230,-192 220,-194 230,-196 220,-198 231,-199 221,-201 232,-202 222,-204 232,-205 222,-207 233,-208 223,-210 233,-211 229,-212 233,-211 224,-213 234,-214 224,-216 235,-217 225,-219 235,-220 225,-222 236,-223 226,-225 236,-226 226,-228 237,-229 227,-231 237,-232 227,-234 238,-235 228,-237 238,-238 229,-240 239,-241 229,-243 240,-244 230,-246 240,-247 230,-249 241,-250 236,-251 240,-248 232,-254 242,-251 234,-257 244,-255 236,-261 247,-258 243,-261 238,-258 247,-263 240,-255 249,-260 242,-252 251,-257 244,-249 253,-254 246,-246 250,-248 245,-246 255,-250 246,-243 256,-247 248,-240 257,-244 249,-237 258,-241 250,-234 259,-238 251,-232 260,-235 252,-229 257,-231 254,-227 260,-234 256,-225 263,-232 258,-222 265,-230 261,-220 264,-224 261,-220 267,-228 265,-217 271,-225 268,-215 271,-219 275,-215 268,-222 277,-218 270,-225 280,-220 272,-227 282,-223 278,-226 275,-223 282,-230 277,-220 284,-227 280,-218 287,-225 282,-216 286,-219 283,-215 288,-224 287,-213 291,-222 291,-211 293,-216 289,-212 296,-220 292,-210 298,-217 294,-208 301,-215 296,-206 300,-209 295,-208 305,-211 296,-205 305,-208 297,-202 306,-205 298,-199 307,-202 299,-196 308,-199 299,-193 309,-196 300,-190 310,-193 301,-188 311,-190 302,-185 307,-186 303,-183 311,-189 304,-181 313,-186 306,-178 315,-183 308,-175 316,-180 310,-172 314,-174 310,-172 318,-177 311,-169 320,-174 313,-166 322,-170 315,-162 324,-167 317,-159 321,-162 325,-159 317,-164 327,-162 319,-167 329,-165 320,-170 331,-168 322,-173 333,-172 328,-174 328,-169 329,-179 331,-169 332,-179 335,-168 335,-173 339,-170 332,-177 341,-173 334,-179 344,-175 336,-182 346,-178 342,-181 341,-177 344,-186 344,-175 348,-185 348,-174 350,-179 349,-174 350,-184 352,-173 354,-183 356,-173 357,-178 352,-175 361,-180 354,-172 363,-177 356,-169 365,-174 358,-166 366,-170 359,-162 364,-165 360,-162 368,-168 362,-159 370,-165 365,-156 372,-162 367,-153 371,-156 366,-154 376,-158 367,-151 377,-154 369,-148 378,-151 370,-144 379,-148 371,-141 380,-145 372,-138 382,-141 373,-135 378,-137 379,-132 377,-141 383,-132 381,-142 386,-133 385,-138 382,-135 389,-141 384,-132 391,-139 386,-129 394,-136 389,-127 392,-130 396,-127 389,-134 398,-130 391,-136 401,-132 393,-139 403,-135 399,-138 400,-133 399,-143 403,-133 403,-143 407,-134 407,-139 405,-134 408,-143 408,-133 412,-142 412,-131 414,-136 409,-134 418,-138 411,-131 420,-135 412,-128 421,-132 413,-125 422,-129 415,-121 424,-126 416,-118 421,-120 418,-116 423,-125 422,-114 427,-123 425,-112 428,-116" fill="none" stroke="#72fbd0" stroke-width="3" /><path d="M 219,-362 211,-368 221,-365 213,-370 222,-367 214,-373 224,-370 216,-375 226,-372 218,-378 227,-375 219,-380 229,-377 225,-380 220,-380 230,-380 220,-377 230,-377 220,-374 230,-374 220,-371 230,-371 220,-368 230,-368 220,-364 230,-364 220,-361 230,-361 220,-358 230,-358 220,-355 230,-355 220,-352 230,-352 220,-349 230,-349 220,-346 230,-346 220,-343 230,-343 220,-339 230,-339 220,-336 230,-336 220,-333 230,-333 220,-330 225,-330 225,-335 225,-325 222,-335 222,-325 219,-335 219,-325 216,-335 216,-325 213,-335 213,-330 213,-325 212,-335 216,-325 216,-335 219,-325 219,-335 222,-325 222,-335 225,-325 225,-335 228,-325 228,-335 231,-325 231,-335 234,-325 234,-335 237,-325 238,-330" fill="none" stroke="#72fbd0" stroke-width="3" /><path d="M 264,-333 271,-340 267,-330 274,-337 270,-326 274,-330 274,-325 274,-335 277,-325 277,-335 280,-325 280,-335 283,-325 283,-335 286,-325 286,-335 289,-325 289,-335 292,-325 292,-335 296,-325 296,-335 299,-325 299,-330 302,-326 295,-334 305,-330 298,-337 309,-333 305,-336 310,-336 300,-336 310,-339 300,-339 310,-342 300,-342 310,-346 300,-346 310,-349 300,-349 310,-352 300,-352 310,-355 300,-355 310,-358 300,-358 310,-361 300,-361 310,-364 300,-364 310,-367 300,-367 310,-371 300,-371 310,-374 305,-374 309,-377 301,-370 305,-380 298,-373 302,-384 299,-380 299,-385 299,-375 296,-385 296,-375 293,-385 293,-375 289,-385 289,-375 286,-385 286,-375 283,-385 283,-375 280,-385 280,-375 277,-385 277,-375 274,-385 274,-380 270,-384 277,-376 267,-380 274,-373 264,-377 268,-374 263,-374 273,-374 263,-370 273,-370 263,-367 273,-367 263,-364 268,-364 264,-360 271,-367 267,-357 274,-364 270,-354 274,-358 274,-353 274,-363 277,-353 277,-363 280,-353 280,-363 283,-353 283,-363 286,-353 286,-363 289,-353 289,-363 292,-353 292,-363 296,-353 296,-363 299,-353 299,-358 303,-356 294,-359 305,-359 295,-362 306,-362 296,-365 307,-365 297,-368 308,-368 298,-372 309,-372 299,-375 310,-375 305,-376" fill="none" stroke="#72fbd0" stroke-width="3" /><path d="M 331,-333 339,-340 335,-330 342,-337 338,-326 341,-330 341,-325 341,-335 344,-325 344,-335 347,-325 347,-335 351,-325 351,-335 354,-325 354,-335 357,-325 357,-335 360,-325 360,-335 363,-325 363,-335 366,-325 366,-330 370,-326 363,-334 373,-330 366,-337 376,-333 373,-336 378,-336 368,-336 378,-339 368,-339 378,-342 368,-342 378,-346 368,-346 378,-349 368,-349 378,-352 368,-352 378,-355 368,-355 378,-358 368,-358 378,-361 368,-361 378,-364 368,-364 378,-367 368,-367 378,-371 368,-371 378,-374 373,-374 376,-377 369,-370 373,-380 366,-373 370,-384 366,-380 366,-385 366,-375 363,-385 363,-375 360,-385 360,-375 357,-385 357,-375 354,-385 354,-375 351,-385 351,-375 348,-385 348,-375 344,-385 344,-375 341,-385 341,-380 338,-384 345,-376 335,-380 342,-373 331,-377 335,-374 330,-374 340,-374 330,-370 340,-370 330,-367 340,-367 330,-364 335,-364 331,-360 339,-367 335,-357 342,-364 338,-354 341,-358 341,-353 341,-363 344,-353 344,-363 347,-353 347,-363 351,-353 351,-363 354,-353 354,-363 357,-353 357,-363 360,-353 360,-363 363,-353 363,-363 366,-353 366,-358 371,-356 362,-359 372,-359 363,-362 373,-362 364,-365 374,-365 365,-368 375,-368 366,-372 376,-372 367,-375 377,-375 373,-376" fill="none" stroke="#72fbd0" stroke-width="3" /><path d="M 407,-373 398,-375 408,-376 398,-378 409,-379 404,-380 404,-375 404,-385 407,-375 407,-385 410,-375 410,-385 413,-375 413,-385 416,-375 416,-385 419,-375 419,-385 422,-375 422,-385 426,-375 426,-385 429,-375 429,-380 425,-376 432,-384 428,-373 435,-380 431,-370 435,-374 431,-377 439,-370 429,-375 437,-368 427,-372 435,-366 425,-370 433,-364 423,-368 431,-361 421,-365 429,-359 419,-363 427,-357 417,-361 425,-354 415,-359 423,-352 413,-356 421,-350 411,-354 419,-347 409,-352 417,-345 408,-349 415,-343 406,-347 413,-341 404,-345 411,-338 402,-342 409,-336 400,-340 407,-334 398,-338 405,-331 396,-336 403,-329 394,-333 398,-330 398,-325 397,-335 401,-325 401,-335 404,-325 404,-335 407,-325 407,-335 410,-325 410,-335 413,-325 413,-335 416,-325 416,-335 419,-325 419,-335 422,-325 422,-335 426,-325 426,-335 429,-325 429,-335 432,-325 432,-335 435,-325 435,-330" fill="none" stroke="#72fbd0" stroke-width="3" /></svg>