<svg version="1.1" xmlns="http://www.w3.org/2000/svg" xmlns:xlink="http://www.w3.org/1999/xlink" xmlns:ev="http://www.w3.org/2001/xml-events" width="520" height="420" viewBox="-10 -410 520 420"><path d="M 0,10 0,-10 3,10 3,-10 6,10 6,-10 9,10 9,-10 12,10 12,-10 15,10 15,-10 18,10 18,-10 21,10 21,-10 24,10 24,-10 27,10 27,-10 30,10 30,-10 33,10 33,-10 36,10 36,-10 39,10 39,-10 42,10 42,-10 45,10 45,-10 48,10 48,-10 51,10 51,-10 54,10 54,-10 57,10 57,-10 60,10 60,-10 63,10 63,-10 66,10 66,-10 69,10 69,-10 72,10 72,-10 75,10 75,-10 78,10 78,-10 81,10 81,-10 84,10 84,-10 87,10 87,-10 90,10 90,-10 93,10 93,-10 96,10 96,-10 99,10 99,-10 102,10 102,-10 105,10 105,-10 108,10 108,-10 111,10 111,-10 114,10 114,-10 117,10 117,-10 120,10 120,-10 123,10 123,-10 127,10 127,-10 130,10 130,-10 133,10 133,-10 136,10 136,-10 139,10 139,-10 142,10 142,-10 145,10 145,-10 148,10 148,-10 151,10 151,-10 154,10 154,-10 157,10 157,-10 160,10 160,-10 163,10 163,-10 166,10 166,-10 169,10 169,-10 172,10 172,-10 175,10 175,-10 178,10 178,-10 181,10 181,-10 184,10 184,-10 187,10 187,-10 190,10 190,-10 193,10 193,-10 196,10 196,-10 199,10 199,-10 202,10 202,-10 205,10 205,-10 208,10 208,-10 211,10 211,-10 214,10 214,-10 217,10 217,-10 220,10 220,-10 223,10 223,-10 226,10 226,-10 229,10 229,-10 232,10 232,-10 235,10 235,-10 238,10 238,-10 241,10 241,-10 244,10 244,-10 247,10 247,-10 250,10 250,-10 253,10 253,-10 256,10 256,-10 259,10 259,-10 262,10 262,-10 265,10 265,-10 268,10 268,-10 271,10 271,-10 274,10 274,-10 277,10 277,-10 280,10 280,-10 283,10 283,-10 286,10 286,-10 289,10 289,-10 292,10 292,-10 295,10 295,-10 298,10 298,-10 301,10 301,-10 304,10 304,-10 307,10 307,-10 310,10 310,-10 313,10 313,-10 316,10 316,-10 319,10 319,-10 322,10 322,-10 325,10 325,-10 328,10 328,-10 331,10 331,-10 334,10 334,-10 337,10 337,-10 340,10 340,-10 343,10 343,-10 346,10 346,-10 349,10 349,-10 352,10 352,-10 355,10 355,-10 358,10 358,-10 361,10 361,-10 364,10 364,-10 367,10 367,-10 370,10 370,-10 373,10 373,-10 377,10 377,-10 380,10 380,-10 383,10 383,-10 386,10 386,-10 389,10 389,-10 392,10 392,-10 395,10 395,-10 398,10 398,-10 401,10 401,-10 404,10 404,-10 407,10 407,-10 410,10 410,-10 413,10 413,-10 416,10 416,-10 419,10 419,-10 422,10 422,-10 425,10 425,-10 428,10 428,-10 431,10 431,-10 434,10 434,-10 437,10 437,-10 440,10 440,-10 443,10 443,-10 446,10 446,-10 449,10 449,-10 452,10 452,-10 455,10 455,-10 458,10 458,-10 461,10 461,-10 464,10 464,-10 467,10 467,-10 470,10 470,-10 473,10 473,-10 476,10 476,-10 479,10 479,-10 482,10 482,-10 485,10 485,-10 488,10 488,-10 491,10 491,-10 494,10 494,-10 497,10 497,-10 500,10 500,0 510,0 490,0 510,-3 490,-3 510,-6 490,-6 510,-9 490,-9 510,-12 490,-12 510,-15 490,-15 510,-18 490,-18 510,-21 490,-21 510,-24 490,-24 510,-27 490,-27 510,-30 490,-30 510,-33 490,-33 510,-36 490,-36 510,-39 490,-39 510,-42 490,-42 510,-45 490,-45 510,-48 490,-48 510,-51 490,-51 510,-54 490,-54 510,-57 490,-57 510,-60 490,-60 510,-63 490,-63 510,-66 490,-66 510,-69 490,-69 510,-72 490,-72 510,-75 490,-75 510,-78 490,-78 510,-81 490,-81 510,-84 490,-84 510,-87 490,-87 510,-90 490,-90 510,-93 490,-93 510,-96 490,-96 510,-99 490,-99 510,-102 490,-102 510,-105 490,-105 510,-108 490,-108 510,-111 490,-111 510,-114 490,-114 510,-117 490,-117 510,-120 490,-120 510,-123 490,-123 510,-126 490,-126 510,-129 490,-129 510,-132 490,-132 510,-135 490,-135 510,-138 490,-138 510,-141 490,-141 510,-144 490,-144 510,-147 490,-147 510,-150 490,-150 510,-153 490,-153 510,-156 490,-156 510,-159 490,-159 510,-162 490,-162 510,-165 490,-165 510,-168 490,-168 510,-171 490,-171 510,-174 490,-174 510,-177 490,-177 510,-180 490,-180 510,-183 490,-183 510,-186 490,-186 510,-189 490,-189 510,-192 490,-192 510,-195 490,-195 510,-198 490,-198 510,-202 490,-202 510,-205 490,-205 510,-208 490,-208 510,-211 490,-211 510,-214 490,-214 510,-217 490,-217 510,-220 490,-220 510,-223 490,-223 510,-226 490,-226 510,-229 490,-229 510,-232 490,-232 510,-235 490,-235 510,-238 490,-238 510,-241 490,-241 510,-244 490,-244 510,-247 490,-247 510,-250 490,-250 510,-253 490,-253 510,-256 490,-256 510,-259 490,-259 510,-262 490,-262 510,-265 490,-265 510,-268 490,-268 510,-271 490,-271 510,-274 490,-274 510,-277 490,-277 510,-280 490,-280 510,-283 490,-283 510,-286 490,-286 510,-289 490,-289 510,-292 490,-292 510,-295 490,-295 510,-298 490,-298 510,-301 490,-301 510,-304 490,-304 510,-307 490,-307 510,-310 490,-310 510,-313 490,-313 510,-316 490,-316 510,-319 490,-319 510,-322 490,-322 510,-325 490,-325 510,-328 490,-328 510,-331 490,-331 510,-334 490,-334 510,-337 490,-337 510,-340 490,-340 510,-343 490,-343 510,-346 490,-346 510,-349 490,-349 510,-352 490,-352 510,-355 490,-355 510,-358 490,-358 510,-361 490,-361 510,-364 490,-364 510,-367 490,-367 510,-370 490,-370 510,-373 490,-373 510,-376 490,-376 510,-379 490,-379 510,-382 490,-382 510,-385 490,-385 510,-388 490,-388 510,-391 490,-391 510,-394 490,-394 510,-397 490,-397 510,-400 500,-400 500,-410 500,-390 497,-410 497,-390 494,-410 494,-390 491,-410 491,-390 488,-410 488,-390 485,-410 485,-390 482,-410 482,-390 479,-410 479,-390 476,-410 476,-390 473,-410 473,-390 470,-410 470,-390 467,-410 467,-390 464,-410 464,-390 461,-410 461,-390 458,-410 458,-390 455,-410 455,-390 452,-410 452,-390 449,-410 449,-390 446,-410 446,-390 443,-410 443,-390 440,-410 440,-390 437,-410 437,-390 434,-410 434,-390 431,-410 431,-390 428,-410 428,-390 425,-410 425,-390 422,-410 422,-390 419,-410 419,-390 416,-410 416,-390 413,-410 413,-390 410,-410 410,-390 407,-410 407,-390 404,-410 404,-390 401,-410 401,-390 398,-410 398,-390 395,-410 395,-390 392,-410 392,-390 389,-410 389,-390 386,-410 386,-390 383,-410 383,-390 380,-410 380,-390 377,-410 377,-390 373,-410 373,-390 370,-410 370,-390 367,-410 367,-390 364,-410 364,-390 361,-410 361,-390 358,-410 358,-390 355,-410 355,-390 352,-410 352,-390 349,-410 349,-390 346,-410 346,-390 343,-410 343,-390 340,-410 340,-390 337,-410 337,-390 334,-410 334,-390 331,-410 331,-390 328,-410 328,-390 325,-410 325,-390 322,-410 322,-390 319,-410 319,-390 316,-410 316,-390 313,-410 313,-390 310,-410 310,-390 307,-410 307,-390 304,-410 304,-390 301,-410 301,-390 298,-410 298,-390 295,-410 295,-390 292,-410 292,-390 289,-410 289,-390 286,-410 286,-390 283,-410 283,-390 280,-410 280,-390 277,-410 277,-390 274,-410 274,-390 271,-410 271,-390 268,-410 268,-390 265,-410 265,-390 262,-410 262,-390 259,-410 259,-390 256,-410 256,-390 253,-410 253,-390 250,-410 250,-390 247,-410 247,-390 244,-410 244,-390 241,-410 241,-390 238,-410 238,-390 235,-410 235,-390 232,-410 232,-390 229,-410 229,-390 226,-410 226,-390 223,-410 223,-390 220,-410 220,-390 217,-410 217,-390 214,-410 214,-390 211,-410 211,-390 208,-410 208,-390 205,-410 205,-390 202,-410 202,-390 199,-410 199,-390 196,-410 196,-390 193,-410 193,-390 190,-410 190,-390 187,-410 187,-390 184,-410 184,-390 181,-410 181,-390 178,-410 178,-390 175,-410 175,-390 172,-410 172,-390 169,-410 169,-390 166,-410 166,-390 163,-410 163,-390 160,-410 160,-390 157,-410 157,-390 154,-410 154,-390 151,-410 151,-390 148,-410 148,-390 145,-410 145,-390 142,-410 142,-390 139,-410 139,-390 136,-410 136,-390 133,-410 133,-390 130,-410 130,-390 127,-410 127,-390 123,-410 123,-390 120,-410 120,-390 117,-410 117,-390 114,-410 114,-390 111,-410 111,-390 108,-410 108,-390 105,-410 105,-390 102,-410 102,-390 99,-410 99,-390 96,-410 96,-390 93,-410 93,-390 90,-410 90,-390 87,-410 87,-390 84,-410 84,-390 81,-410 81,-390 78,-410 78,-390 75,-410 75,-390 72,-410 72,-390 69,-410 69,-390 66,-410 66,-390 63,-410 63,-390 60,-410 60,-390 57,-410 57,-390 54,-410 54,-390 51,-410 51,-390 48,-410 48,-390 45,-410 45,-390 42,-410 42,-390 39,-410 39,-390 36,-410 36,-390 33,-410 33,-390 30,-410 30,-390 27,-410 27,-390 24,-410 24,-390 21,-410 21,-390 18,-410 18,-390 15,-410 15,-390 12,-410 12,-390 9,-410 9,-390 6,-410 6,-390 3,-410 3,-390 0,-410 0,-400 -10,-400 10,-400 -10,-397 10,-397 -10,-394 10,-394 -10,-391 10,-391 -10,-388 10,-388 -10,-385 10,-385 -10,-382 10,-382 -10,-379 10,-379 -10,-376 10,-376 -10,-373 10,-373 -10,-370 10,-370 -10,-367 10,-367 -10,-364 10,-364 -10,-361 10,-361 -10,-358 10,-358 -10,-355 10,-355 -10,-352 10,-352 -10,-349 10,-349 -10,-346 10,-346 -10,-343 10,-343 -10,-340 10,-340 -10,-337 10,-337 -10,-334 10,-334 -10,-331 10,-331 -10,-328 10,-328 -10,-325 10,-325 -10,-322 10,-322 -10,-319 10,-319 -10,-316 10,-316 -10,-313 10,-313 -10,-310 10,-310 -10,-307 10,-307 -10,-304 10,-304 -10,-301 10,-301 -10,-298 10,-298 -10,-295 10,-295 -10,-292 10,-292 -10,-289 10,-289 -10,-286 10,-286 -10,-283 10,-283 -10,-280 10,-280 -10,-277 10,-277 -10,-274 10,-274 -10,-271 10,-271 -10,-268 10,-268 -10,-265 10,-265 -10,-262 10,-262 -10,-259 10,-259 -10,-256 10,-256 -10,-253 10,-253 -10,-250 10,-250 -10,-247 10,-247 -10,-244 10,-244 -10,-241 10,-241 -10,-238 10,-238 -10,-235 10,-235 -10,-232 10,-232 -10,-229 10,-229 -10,-226 10,-226 -10,-223 10,-223 -10,-220 10,-220 -10,-217 10,-217 -10,-214 10,-214 -10,-211 10,-211 -10,-208 10,-208 -10,-205 10,-205 -10,-202 10,-202 -10,-198 10,-198 -10,-195 10,-195 -10,-192 10,-192 -10,-189 10,-189 -10,-186 10,-186 -10,-183 10,-183 -10,-180 10,-180 -10,-177 10,-177 -10,-174 10,-174 -10,-171 10,-171 -10,-168 10,-168 -10,-165 10,-165 -10,-162 10,-162 -10,-159 10,-159 -10,-156 10,-156 -10,-153 10,-153 -10,-150 10,-150 -10,-147 10,-147 -10,-144 10,-144 -10,-141 10,-141 -10,-138 10,-138 -10,-135 10,-135 -10,-132 10,-132 -10,-129 10,-129 -10,-126 10,-126 -10,-123 10,-123 -10,-120 10,-120 -10,-117 10,-117 -10,-114 10,-114 -10,-111 10,-111 -10,-108 10,-108 -10,-105 10,-105 -10,-102 10,-102 -10,-99 10,-99 -10,-96 10,-96 -10,-93 10,-93 -10,-90 10,-90 -10,-87 10,-87 -10,-84 10,-84 -10,-81 10,-81 -10,-78 10,-78 -10,-75 10,-75 -10,-72 10,-72 -10,-69 10,-69 -10,-66 10,-66 -10,-63 10,-63 -10,-60 10,-60 -10,-57 10,-57 -10,-54 10,-54 -10,-51 10,-51 -10,-48 10,-48 -10,-45 10,-45 -10,-42 10,-42 -10,-39 10,-39 -10,-36 10,-36 -10,-33 10,-33 -10,-30 10,-30 -10,-27 10,-27 -10,-24 10,-24 -10,-21 10,-21 -10,-18 10,-18 -10,-15 10,-15 -10,-12 10,-12 -10,-9 10,-9 -10,-6 10,-6 -10,-3 10,-3 -10,0 0,0" fill="none" stroke="#c6360c" stroke-width="3" /><path d="M 166,-241 159,-234 164,-244 156,-236 161,-246 154,-239 159,-249 151,-241 156,-251 149,-244 154,-254 150,-250 150,-255 150,-245 147,-255 147,-245 144,-255 144,-245 141,-255 141,-245 138,-255 138,-245 134,-255 134,-245 131,-255 131,-245 128,-255 128,-245 125,-255 125,-250 121,-254 129,-246 118,-250 125,-243 115,-247 119,-244 114,-244 124,-244 114,-241 124,-241 114,-238 124,-238 114,-234 124,-234 114,-231 124,-231 114,-228 124,-228 114,-225 124,-225 114,-222 124,-222 114,-219 124,-219 114,-216 124,-216 114,-213 124,-213 114,-209 124,-209 114,-206 119,-206 115,-203 122,-210 118,-200 125,-207 121,-196 125,-200 125,-195 125,-205 128,-195 128,-205 131,-195 131,-205 134,-195 134,-205 137,-195 137,-205 141,-195 141,-205 144,-195 144,-205 147,-195 147,-205 150,-195 150,-200 154,-196 146,-204 156,-199 149,-206 159,-201 151,-209 161,-204 154,-211 164,-206 156,-214 166,-209 163,-213" fill="none" stroke="#c6360c" stroke-width="3" /><path d="M 189,-203 196,-210 192,-200 199,-207 195,-196 199,-200 199,-195 199,-205 202,-195 202,-205 205,-195 205,-205 208,-195 208,-205 211,-195 211,-200 215,-196 208,-204 218,-200 211,-207 221,-203 218,-206 223,-206 213,-206 223,-209 213,-209 223,-212 213,-212 223,-216 213,-216 223,-219 213,-219 223,-222 213,-222 223,-225 213,-225 223,-228 213,-228 223,-231 213,-231 223,-234 213,-234 223,-237 213,-237 223,-241 213,-241 223,-244 213,-244 223,-247 213,-247 223,-250 218,-250" fill="none" stroke="#c6360c" stroke-width="3" /><path d="M 166,-341 159,-334 164,-344 156,-336 161,-346 154,-339 159,-349 151,-341 156,-351 149,-344 154,-354 150,-350 150,-355 150,-345 147,-355 147,-345 144,-355 144,-345 141,-355 141,-345 138,-355 138,-345 134,-355 134,-345 131,-355 131,-345 128,-355 128,-345 125,-355 125,-350 121,-354 129,-346 118,-350 125,-343 115,-347 119,-344 114,-344 124,-344 114,-341 124,-341 114,-338 124,-338 114,-334 124,-334 114,-331 124,-331 114,-328 124,-328 114,-325 124,-325 114,-322 124,-322 114,-319 124,-319 114,-316 124,-316 114,-313 124,-313 114,-309 124,-309 114,-306 119,-306 115,-303 122,-310 118,-300 125,-307 121,-296 125,-300 125,-295 125,-305 128,-295 128,-305 131,-295 131,-305 134,-295 134,-305 137,-295 137,-305 141,-295 141,-305 144,-295 144,-305 147,-295 147,-305 150,-295 150,-300 154,-296 146,-304 156,-299 149,-306 159,-301 151,-309 161,-304 154,-311 164,-306 156,-314 166,-309 163,-313" fill="none" stroke="#c6360c" stroke-width="3" /><path d="M 189,-303 196,-310 192,-300 199,-307 195,-296 199,-300 199,-295 199,-305 202,-295 202,-305 205,-295 205,-305 208,-295 208,-305 211,-295 211,-305 214,-295 214,-305 217,-295 217,-305 221,-295 221,-305 224,-295 224,-300 227,-296 220,-304 230,-300 223,-307 234,-303 230,-306 235,-306 225,-306 235,-309 225,-309 235,-312 225,-312 235,-316 225,-316 235,-319 230,-319 234,-321 226,-316 232,-324 224,-319 231,-328 226,-325 226,-330 226,-320 223,-330 223,-320 220,-330 220,-320 217,-330 217,-320 214,-330 214,-320 211,-330 211,-320 208,-330 208,-320 204,-330 204,-320 201,-330 201,-325 205,-329 198,-321 202,-332 195,-325 199,-335 195,-331 200,-331 190,-331 200,-334 190,-334 200,-337 190,-337 200,-341 190,-341 200,-344 195,-344 199,-340 191,-347 202,-343 195,-350 205,-346 201,-350 201,-345 201,-355 204,-345 204,-355 207,-345 207,-355 211,-345 211,-355 214,-345 214,-355 217,-345 217,-355 220,-345 220,-355 223,-345 223,-355 226,-345 226,-350 223,-346 230,-354 226,-343 233,-350 229,-340 233,-344" fill="none" stroke="#c6360c" stroke-width="3" /><path d="M 121,-103 129,-110 125,-100 132,-107 128,-96 131,-100 131,-95 131,-105 134,-95 134,-105 137,-95 137,-105 141,-95 141,-105 144,-95 144,-105 147,-95 147,-105 150,-95 150,-105 153,-95 153,-105 156,-95 156,-100 160,-96 153,-104 163,-100 156,-107 166,-103 163,-106 168,-106 158,-106 168,-109 158,-109 168,-112 158,-112 168,-116 158,-116 168,-119 163,-119 167,-121 158,-116 165,-124 156,-119 163,-128 159,-125 159,-130 159,-120 156,-130 156,-120 153,-130 153,-120 149,-130 149,-120 146,-130 146,-120 143,-130 143,-120 140,-130 140,-120 137,-130 137,-120 134,-130 134,-125 137,-129 130,-121 134,-132 127,-125 131,-135 128,-131 133,-131 123,-131 133,-134 123,-134 133,-137 123,-137 133,-141 123,-141 133,-144 128,-144 131,-140 124,-147 134,-143 127,-150 137,-146 134,-150 134,-145 134,-155 137,-145 137,-155 140,-145 140,-155 143,-145 143,-155 146,-145 146,-155 149,-145 149,-155 152,-145 152,-155 156,-145 156,-155 159,-145 159,-150 155,-146 162,-154 158,-143 165,-150 161,-140 165,-144" fill="none" stroke="#c6360c" stroke-width="3" /><path d="M 200,-100 190,-100 200,-103 190,-103 200,-106 190,-106 200,-109 190,-109 200,-112 190,-112 200,-116 190,-116 200,-119 190,-119 200,-122 190,-122 200,-125 190,-125 200,-128 190,-128 200,-131 190,-131 200,-134 190,-134 200,-137 190,-137 200,-141 190,-141 200,-144 190,-144 200,-147 190,-147 200,-150 195,-150 195,-145 195,-155 198,-145 198,-155 201,-145 201,-155 204,-145 204,-155 207,-145 207,-155 211,-145 211,-155 214,-145 214,-155 217,-145 217,-155 220,-145 220,-155 223,-145 223,-155 226,-145 226,-150 223,-146 230,-154 226,-143 233,-150 229,-140 233,-144 228,-144 238,-144 228,-141 238,-141 228,-138 238,-138 228,-134 238,-134 228,-131 238,-131 228,-128 238,-128 228,-125 238,-125 228,-122 238,-122 228,-119 238,-119 228,-116 238,-116 228,-113 238,-113 228,-109 238,-109 228,-106 233,-106 229,-110 236,-103 226,-107 233,-100 223,-104 226,-100 226,-105 226,-95 223,-105 223,-95 220,-105 220,-95 217,-105 217,-95 214,-105 214,-95 211,-105 211,-95 208,-105 208,-95 204,-105 204,-95 201,-105 201,-95 198,-105 198,-95 195,-105 195,-100" fill="none" stroke="#c6360c" stroke-width="3" /></svg>