<svg version="1.1" xmlns="http://www.w3.org/2000/svg" xmlns:xlink="http://www.w3.org/1999/xlink" xmlns:ev="http://www.w3.org/2001/xml-events" width="520" height="420" viewBox="-10 -410 520 420"><path d="M 0,10 0,-10 3,10 3,-10 6,10 6,-10 9,10 9,-10 12,10 12,-10 15,10 15,-10 18,10 18,-10 21,10 21,-10 24,10 24,-10 27,10 27,-10 30,10 30,-10 33,10 33,-10 36,10 36,-10 39,10 39,-10 42,10 42,-10 45,10 45,-10 48,10 48,-10 51,10 51,-10 54,10 54,-10 57,10 57,-10 60,10 60,-10 63,10 63,-10 66,10 66,-10 69,10 69,-10 72,10 72,-10 75,10 75,-10 78,10 78,-10 81,10 81,-10 84,10 84,-10 87,10 87,-10 90,10 90,-10 93,10 93,-10 96,10 96,-10 99,10 99,-10 102,10 102,-10 105,10 105,-10 108,10 108,-10 111,10 111,-10 114,10 114,-10 117,10 117,-10 120,10 120,-10 123,10 123,-10 127,10 127,-10 130,10 130,-10 133,10 133,-10 136,10 136,-10 139,10 139,-10 142,10 142,-10 145,10 145,-10 148,10 148,-10 151,10 151,-10 154,10 154,-10 157,10 157,-10 160,10 160,-10 163,10 163,-10 166,10 166,-10 169,10 169,-10 172,10 172,-10 175,10 175,-10 178,10 178,-10 181,10 181,-10 184,10 184,-10 187,10 187,-10 190,10 190,-10 193,10 193,-10 196,10 196,-10 199,10 199,-10 202,10 202,-10 205,10 205,-10 208,10 208,-10 211,10 211,-10 214,10 214,-10 217,10 217,-10 220,10 220,-10 223,10 223,-10 226,10 226,-10 229,10 229,-10 232,10 232,-10 235,10 235,-10 238,10 238,-10 241,10 241,-10 244,10 244,-10 247,10 247,-10 250,10 250,-10 253,10 253,-10 256,10 256,-10 259,10 259,-10 262,10 262,-10 265,10 265,-10 268,10 268,-10 271,10 271,-10 274,10 274,-10 277,10 277,-10 280,10 280,-10 283,10 283,-10 286,10 286,-10 289,10 289,-10 292,10 292,-10 295,10 295,-10 298,10 298,-10 301,10 301,-10 304,10 304,-10 307,10 307,-10 310,10 310,-10 313,10 313,-10 316,10 316,-10 319,10 319,-10 322,10 322,-10 325,10 325,-10 328,10 328,-10 331,10 331,-10 334,10 334,-10 337,10 337,-10 340,10 340,-10 343,10 343,-10 346,10 346,-10 349,10 349,-10 352,10 352,-10 355,10 355,-10 358,10 358,-10 361,10 361,-10 364,10 364,-10 367,10 367,-10 370,10 370,-10 373,10 373,-10 377,10 377,-10 380,10 380,-10 383,10 383,-10 386,10 386,-10 389,10 389,-10 392,10 392,-10 395,10 395,-10 398,10 398,-10 401,10 401,-10 404,10 404,-10 407,10 407,-10 410,10 410,-10 413,10 413,-10 416,10 416,-10 419,10 419,-10 422,10 422,-10 425,10 425,-10 428,10 428,-10 431,10 431,-10 434,10 434,-10 437,10 437,-10 440,10 440,-10 443,10 443,-10 446,10 446,-10 449,10 449,-10 452,10 452,-10 455,10 455,-10 458,10 458,-10 461,10 461,-10 464,10 464,-10 467,10 467,-10 470,10 470,-10 473,10 473,-10 476,10 476,-10 479,10 479,-10 482,10 482,-10 485,10 485,-10 488,10 488,-10 491,10 491,-10 494,10 494,-10 497,10 497,-10 500,10 500,0 510,0 490,0 510,-3 490,-3 510,-6 490,-6 510,-9 490,-9 510,-12 490,-12 510,-15 490,-15 510,-18 490,-18 510,-21 490,-21 510,-24 490,-24 510,-27 490,-27 510,-30 490,-30 510,-33 490,-33 510,-36 490,-36 510,-39 490,-39 510,-42 490,-42 510,-45 490,-45 510,-48 490,-48 510,-51 490,-51 510,-54 490,-54 510,-57 490,-57 510,-60 490,-60 510,-63 490,-63 510,-66 490,-66 510,-69 490,-69 510,-72 490,-72 510,-75 490,-75 510,-78 490,-78 510,-81 490,-81 510,-84 490,-84 510,-87 490,-87 510,-90 490,-90 510,-93 490,-93 510,-96 490,-96 510,-99 490,-99 510,-102 490,-102 510,-105 490,-105 510,-108 490,-108 510,-111 490,-111 510,-114 490,-114 510,-117 490,-117 510,-120 490,-120 510,-123 490,-123 510,-126 490,-126 510,-129 490,-129 510,-132 490,-132 510,-135 490,-135 510,-138 490,-138 510,-141 490,-141 510,-144 490,-144 510,-147 490,-147 510,-150 490,-150 510,-153 490,-153 510,-156 490,-156 510,-159 490,-159 510,-162 490,-162 510,-165 490,-165 510,-168 490,-168 510,-171 490,-171 510,-174 490,-174 510,-177 490,-177 510,-180 490,-180 510,-183 490,-183 510,-186 490,-186 510,-189 490,-189 510,-192 490,-192 510,-195 490,-195 510,-198 490,-198 510,-202 490,-202 510,-205 490,-205 510,-208 490,-208 510,-211 490,-211 510,-214 490,-214 510,-217 490,-217 510,-220 490,-220 510,-223 490,-223 510,-226 490,-226 510,-229 490,-229 510,-232 490,-232 510,-235 490,-235 510,-238 490,-238 510,-241 490,-241 510,-244 490,-244 510,-247 490,-247 510,-250 490,-250 510,-253 490,-253 510,-256 490,-256 510,-259 490,-259 510,-262 490,-262 510,-265 490,-265 510,-268 490,-268 510,-271 490,-271 510,-274 490,-274 510,-277 490,-277 510,-280 490,-280 510,-283 490,-283 510,-286 490,-286 510,-289 490,-289 510,-292 490,-292 510,-295 490,-295 510,-298 490,-298 510,-301 490,-301 510,-304 490,-304 510,-307 490,-307 510,-310 490,-310 510,-313 490,-313 510,-316 490,-316 510,-319 490,-319 510,-322 490,-322 510,-325 490,-325 510,-328 490,-328 510,-331 490,-331 510,-334 490,-334 510,-337 490,-337 510,-340 490,-340 510,-343 490,-343 510,-346 490,-346 510,-349 490,-349 510,-352 490,-352 510,-355 490,-355 510,-358 490,-358 510,-361 490,-361 510,-364 490,-364 510,-367 490,-367 510,-370 490,-370 510,-373 490,-373 510,-376 490,-376 510,-379 490,-379 510,-382 490,-382 510,-385 490,-385 510,-388 490,-388 510,-391 490,-391 510,-394 490,-394 510,-397 490,-397 510,-400 500,-400 500,-410 500,-390 497,-410 497,-390 494,-410 494,-390 491,-410 491,-390 488,-410 488,-390 485,-410 485,-390 482,-410 482,-390 479,-410 479,-390 476,-410 476,-390 473,-410 473,-390 470,-410 470,-390 467,-410 467,-390 464,-410 464,-390 461,-410 461,-390 458,-410 458,-390 455,-410 455,-390 452,-410 452,-390 449,-410 449,-390 446,-410 446,-390 443,-410 443,-390 440,-410 440,-390 437,-410 437,-390 434,-410 434,-390 431,-410 431,-390 428,-410 428,-390 425,-410 425,-390 422,-410 422,-390 419,-410 419,-390 416,-410 416,-390 413,-410 413,-390 410,-410 410,-390 407,-410 407,-390 404,-410 404,-390 401,-410 401,-390 398,-410 398,-390 395,-410 395,-390 392,-410 392,-390 389,-410 389,-390 386,-410 386,-390 383,-410 383,-390 380,-410 380,-390 377,-410 377,-390 373,-410 373,-390 370,-410 370,-390 367,-410 367,-390 364,-410 364,-390 361,-410 361,-390 358,-410 358,-390 355,-410 355,-390 352,-410 352,-390 349,-410 349,-390 346,-410 346,-390 343,-410 343,-390 340,-410 340,-390 337,-410 337,-390 334,-410 334,-390 331,-410 331,-390 328,-410 328,-390 325,-410 325,-390 322,-410 322,-390 319,-410 319,-390 316,-410 316,-390 313,-410 313,-390 310,-410 310,-390 307,-410 307,-390 304,-410 304,-390 301,-410 301,-390 298,-410 298,-390 295,-410 295,-390 292,-410 292,-390 289,-410 289,-390 286,-410 286,-390 283,-410 283,-390 280,-410 280,-390 277,-410 277,-390 274,-410 274,-390 271,-410 271,-390 268,-410 268,-390 265,-410 265,-390 262,-410 262,-390 259,-410 259,-390 256,-410 256,-390 253,-410 253,-390 250,-410 250,-390 247,-410 247,-390 244,-410 244,-390 241,-410 241,-390 238,-410 238,-390 235,-410 235,-390 232,-410 232,-390 229,-410 229,-390 226,-410 226,-390 223,-410 223,-390 220,-410 220,-390 217,-410 217,-390 214,-410 214,-390 211,-410 211,-390 208,-410 208,-390 205,-410 205,-390 202,-410 202,-390 199,-410 199,-390 196,-410 196,-390 193,-410 193,-390 190,-410 190,-390 187,-410 187,-390 184,-410 184,-390 181,-410 181,-390 178,-410 178,-390 175,-410 175,-390 172,-410 172,-390 169,-410 169,-390 166,-410 166,-390 163,-410 163,-390 160,-410 160,-390 157,-410 157,-390 154,-410 154,-390 151,-410 151,-390 148,-410 148,-390 145,-410 145,-390 142,-410 142,-390 139,-410 139,-390 136,-410 136,-390 133,-410 133,-390 130,-410 130,-390 127,-410 127,-390 123,-410 123,-390 120,-410 120,-390 117,-410 117,-390 114,-410 114,-390 111,-410 111,-390 108,-410 108,-390 105,-410 105,-390 102,-410 102,-390 99,-410 99,-390 96,-410 96,-390 93,-410 93,-390 90,-410 90,-390 87,-410 87,-390 84,-410 84,-390 81,-410 81,-390 78,-410 78,-390 75,-410 75,-390 72,-410 72,-390 69,-410 69,-390 66,-410 66,-390 63,-410 63,-390 60,-410 60,-390 57,-410 57,-390 54,-410 54,-390 51,-410 51,-390 48,-410 48,-390 45,-410 45,-390 42,-410 42,-390 39,-410 39,-390 36,-410 36,-390 33,-410 33,-390 30,-410 30,-390 27,-410 27,-390 24,-410 24,-390 21,-410 21,-390 18,-410 18,-390 15,-410 15,-390 12,-410 12,-390 9,-410 9,-390 6,-410 6,-390 3,-410 3,-390 0,-410 0,-400 -10,-400 10,-400 -10,-397 10,-397 -10,-394 10,-394 -10,-391 10,-391 -10,-388 10,-388 -10,-385 10,-385 -10,-382 10,-382 -10,-379 10,-379 -10,-376 10,-376 -10,-373 10,-373 -10,-370 10,-370 -10,-367 10,-367 -10,-364 10,-364 -10,-361 10,-361 -10,-358 10,-358 -10,-355 10,-355 -10,-352 10,-352 -10,-349 10,-349 -10,-346 10,-346 -10,-343 10,-343 -10,-340 10,-340 -10,-337 10,-337 -10,-334 10,-334 -10,-331 10,-331 -10,-328 10,-328 -10,-325 10,-325 -10,-322 10,-322 -10,-319 10,-319 -10,-316 10,-316 -10,-313 10,-313 -10,-310 10,-310 -10,-307 10,-307 -10,-304 10,-304 -10,-301 10,-301 -10,-298 10,-298 -10,-295 10,-295 -10,-292 10,-292 -10,-289 10,-289 -10,-286 10,-286 -10,-283 10,-283 -10,-280 10,-280 -10,-277 10,-277 -10,-274 10,-274 -10,-271 10,-271 -10,-268 10,-268 -10,-265 10,-265 -10,-262 10,-262 -10,-259 10,-259 -10,-256 10,-256 -10,-253 10,-253 -10,-250 10,-250 -10,-247 10,-247 -10,-244 10,-244 -10,-241 10,-241 -10,-238 10,-238 -10,-235 10,-235 -10,-232 10,-232 -10,-229 10,-229 -10,-226 10,-226 -10,-223 10,-223 -10,-220 10,-220 -10,-217 10,-217 -10,-214 10,-214 -10,-211 10,-211 -10,-208 10,-208 -10,-205 10,-205 -10,-202 10,-202 -10,-198 10,-198 -10,-195 10,-195 -10,-192 10,-192 -10,-189 10,-189 -10,-186 10,-186 -10,-183 10,-183 -10,-180 10,-180 -10,-177 10,-177 -10,-174 10,-174 -10,-171 10,-171 -10,-168 10,-168 -10,-165 10,-165 -10,-162 10,-162 -10,-159 10,-159 -10,-156 10,-156 -10,-153 10,-153 -10,-150 10,-150 -10,-147 10,-147 -10,-144 10,-144 -10,-141 10,-141 -10,-138 10,-138 -10,-135 10,-135 -10,-132 10,-132 -10,-129 10,-129 -10,-126 10,-126 -10,-123 10,-123 -10,-120 10,-120 -10,-117 10,-117 -10,-114 10,-114 -10,-111 10,-111 -10,-108 10,-108 -10,-105 10,-105 -10,-102 10,-102 -10,-99 10,-99 -10,-96 10,-96 -10,-93 10,-93 -10,-90 10,-90 -10,-87 10,-87 -10,-84 10,-84 -10,-81 10,-81 -10,-78 10,-78 -10,-75 10,-75 -10,-72 10,-72 -10,-69 10,-69 -10,-66 10,-66 -10,-63 10,-63 -10,-60 10,-60 -10,-57 10,-57 -10,-54 10,-54 -10,-51 10,-51 -10,-48 10,-48 -10,-45 10,-45 -10,-42 10,-42 -10,-39 10,-39 -10,-36 10,-36 -10,-33 10,-33 -10,-30 10,-30 -10,-27 10,-27 -10,-24 10,-24 -10,-21 10,-21 -10,-18 10,-18 -10,-15 10,-15 -10,-12 10,-12 -10,-9 10,-9 -10,-6 10,-6 -10,-3 10,-3 -10,0 0,0" fill="none" stroke="#bcf4fc" stroke-width="3" /><path d="M 10,-179 20,-180 10,-176 20,-177 10,-173 20,-174 11,-170 21,-171 11,-167 21,-168 11,-164 21,-165 11,-161 21,-162 12,-158 22,-158 12,-155 22,-155 12,-152 22,-152 12,-149 22,-149 12,-146 22,-146 13,-143 23,-143 13,-140 23,-140 13,-137 23,-137 13,-134 23,-134 14,-131 24,-131 14,-128 24,-128 14,-125 24,-125 14,-122 24,-122 14,-119 24,-119 15,-116 25,-116 15,-112 25,-113 15,-109 25,-110 15,-106 25,-107 16,-103 25,-104 16,-100 26,-101 16,-97 26,-98 16,-94 26,-95 16,-91 26,-92 17,-88 27,-89 17,-85 27,-86 17,-82 27,-83 17,-79 27,-80 17,-76 27,-77 18,-73 28,-74 18,-70 28,-71 18,-67 28,-68 18,-64 28,-65 19,-61 29,-62 19,-58 29,-59 19,-55 29,-56 19,-52 24,-53 24,-48 24,-57 28,-48 27,-58 31,-48 30,-58 34,-48 33,-53 38,-53 28,-53 39,-56 29,-56 39,-59 29,-59 39,-62 29,-62 39,-65 29,-65 39,-68 29,-68 40,-71 30,-71 40,-74 30,-74 40,-77 30,-77 40,-80 30,-81 40,-83 30,-84 40,-86 31,-87 41,-89 31,-90 41,-92 31,-93 41,-95 31,-96 41,-98 31,-99 41,-101 31,-102 42,-104 32,-105 42,-107 32,-108 42,-110 32,-111 42,-113 32,-114 42,-116 32,-117 43,-119 33,-120 43,-122 33,-123 43,-125 33,-126 43,-129 33,-129 43,-132 33,-132 43,-135 33,-135 44,-138 34,-138 44,-141 34,-141 44,-144 34,-144 44,-147 34,-147 44,-150 34,-150 45,-153 35,-153 45,-156 35,-156 45,-159 35,-159 45,-162 35,-163 45,-165 35,-166 45,-168 35,-169 46,-171 36,-172 46,-174 36,-175 46,-177 36,-178 46,-180 36,-181 46,-183 36,-184 47,-186 37,-187 47,-189 37,-190 47,-192 37,-193 47,-195 37,-196 47,-198 37,-199 47,-201 38,-202 48,-204 43,-205 38,-202 47,-207 40,-199 49,-204 41,-197 50,-201 43,-194 52,-198 44,-191 53,-195 46,-188 55,-192 47,-185 52,-187 47,-186 57,-189 48,-182 58,-185 49,-179 59,-182 50,-176 60,-179 51,-173 61,-176 52,-170 62,-173 53,-167 63,-170 54,-163 64,-166 55,-160 65,-163 56,-157 61,-159 56,-157 66,-160 57,-154 67,-157 58,-151 68,-154 59,-148 69,-151 61,-145 70,-148 62,-142 71,-145 63,-139 72,-142 64,-136 73,-139 65,-133 74,-136 66,-130 70,-132 66,-130 75,-133 67,-127 76,-130 68,-124 77,-127 69,-121 79,-124 70,-118 80,-121 71,-115 81,-118 73,-112 82,-115 74,-109 83,-112 75,-106 80,-108 83,-104 77,-112 86,-106 80,-114 89,-108 83,-116 92,-110 89,-114 94,-113 84,-115 94,-116 85,-118 95,-119 85,-121 96,-122 86,-124 96,-125 86,-127 97,-128 87,-130 97,-131 88,-133 98,-134 88,-136 99,-137 89,-139 99,-140 89,-142 100,-143 90,-145 101,-146 91,-148 101,-149 91,-151 102,-152 92,-154 102,-155 93,-157 103,-158 98,-159 93,-159 103,-159 93,-156 103,-156 93,-153 103,-153 94,-150 104,-150 94,-147 104,-147 94,-143 104,-144 94,-140 104,-141 94,-137 104,-138 95,-134 105,-135 95,-131 105,-132 95,-128 105,-129 95,-125 105,-126 95,-122 105,-123 96,-119 106,-120 96,-116 106,-117 96,-113 106,-114 96,-110 106,-111 96,-107 106,-108 97,-104 107,-105 97,-101 107,-102 97,-98 107,-99 97,-95 107,-95 97,-92 107,-92 98,-89 108,-89 98,-86 108,-86 98,-83 108,-83 98,-80 108,-80 98,-77 108,-77 99,-74 109,-74 99,-71 109,-71 99,-67 109,-68 99,-64 109,-65 99,-61 109,-62 100,-58 110,-59 100,-55 110,-56 100,-52 110,-53 100,-49 110,-50 100,-46 110,-47 101,-43 111,-44 101,-40 111,-41 101,-37 111,-38 101,-34 111,-35 101,-31 111,-32 102,-28 112,-29 102,-25 112,-26 102,-22 112,-23 102,-19 112,-19 102,-16 107,-16 112,-16 102,-16 112,-19 102,-19 113,-22 103,-22 113,-25 103,-25 113,-28 103,-28 113,-31 103,-31 113,-34 103,-34 113,-37 103,-37 113,-40 103,-40 113,-43 103,-43 114,-46 104,-46 114,-49 104,-49 114,-52 104,-52 114,-55 104,-56 114,-58 104,-59 114,-61 104,-62 114,-64 104,-65 114,-67 104,-68 114,-70 104,-71 115,-73 105,-74 115,-76 105,-77 115,-79 105,-80 115,-82 105,-83 115,-85 105,-86 115,-88 105,-89 115,-91 105,-92 115,-94 105,-95 116,-97 106,-98 116,-100 106,-101 116,-103 106,-104 116,-106 106,-107 116,-109 106,-110 116,-112 106,-113 116,-115 106,-116 116,-118 106,-119 116,-121 107,-122 117,-124 107,-125 117,-127 107,-128 117,-130 107,-131 117,-133 107,-134 117,-137 107,-137 117,-140 107,-140 117,-143 107,-143 117,-146 107,-146 118,-149 108,-149 118,-152 108,-152 118,-155 108,-155 118,-158 108,-158 118,-161 108,-161 118,-164 108,-164 118,-167 108,-167 118,-170 108,-170 119,-173 109,-173 119,-176 109,-176 119,-179 109,-179 119,-182 109,-182 119,-185 109,-185 119,-188 109,-188 119,-191 109,-191 119,-194 109,-194 119,-197 110,-197 120,-200 110,-200 120,-203 110,-203 120,-206 110,-206 120,-209 110,-209 120,-212 110,-212 120,-215 110,-215 120,-218 110,-218 120,-221 110,-221 121,-224 111,-224 121,-227 111,-227 121,-230 111,-230 121,-233 111,-233 121,-236 111,-236 121,-239 111,-239 121,-242 111,-242 121,-245 111,-245 122,-248 117,-248 112,-248 122,-248 112,-245 122,-245 112,-242 122,-242 112,-239 122,-239 112,-236 122,-236 112,-233 122,-233 112,-230 122,-230 112,-227 122,-227 113,-224 123,-224 113,-221 123,-221 113,-218 123,-218 113,-215 123,-215 113,-212 123,-212 113,-209 123,-209 113,-206 123,-206 113,-203 123,-203 114,-200 124,-200 114,-197 124,-197 114,-194 124,-194 114,-191 124,-191 114,-188 124,-188 114,-185 124,-185 114,-182 124,-182 114,-179 124,-179 115,-176 125,-176 115,-173 125,-173 115,-170 125,-170 115,-167 125,-167 115,-164 125,-164 115,-161 125,-161 115,-158 125,-158 115,-155 125,-155 116,-152 126,-152 116,-149 126,-149 116,-146 126,-146 116,-143 126,-143 116,-140 126,-140 116,-137 126,-137 116,-134 126,-134 116,-131 126,-131 117,-128 127,-128 117,-125 127,-125 117,-122 127,-122 117,-119 127,-119 117,-116 127,-116 117,-113 127,-113 117,-110 127,-110 117,-107 127,-107 118,-104 128,-104 118,-101 128,-101 118,-98 128,-98 118,-95 128,-95 118,-92 128,-92 118,-89 128,-89 118,-85 128,-86 118,-82 128,-83 119,-79 129,-80 119,-76 129,-77 119,-73 129,-74 119,-70 129,-71 119,-67 129,-68 119,-64 129,-65 119,-61 129,-62 119,-58 129,-59 120,-55 130,-56 120,-52 130,-53 120,-49 130,-50 120,-46 130,-47 120,-43 130,-44 120,-40 130,-41 120,-37 130,-38 120,-34 130,-35 121,-31 131,-32 121,-28 131,-29 121,-25 126,-26 131,-25 121,-26 131,-28 121,-29 131,-31 121,-32 131,-34 121,-35 131,-37 121,-38 132,-40 122,-41 132,-43 122,-44 132,-46 122,-47 132,-49 122,-50 132,-52 122,-53 132,-55 122,-56 133,-58 123,-59 133,-61 123,-62 133,-64 123,-65 133,-67 123,-68 133,-70 123,-71 133,-73 123,-74 134,-76 124,-77 134,-79 124,-80 134,-82 124,-83 134,-85 124,-86 134,-88 124,-89 134,-91 124,-92 135,-94 125,-95 135,-97 125,-98 135,-100 125,-101 135,-103 125,-104 135,-106 125,-107 135,-109 125,-110 136,-112 126,-113 136,-115 126,-116 136,-118 126,-119 136,-121 126,-122 136,-124 126,-125 136,-127 126,-128 137,-130 127,-131 137,-133 127,-134 137,-136 127,-137 137,-139 127,-140 137,-142 127,-143 137,-145 127,-146 138,-148 128,-149 138,-151 128,-152 138,-154 128,-155 138,-157 128,-158 138,-160 128,-161 138,-163 128,-164 139,-166 129,-167 139,-169 129,-170 139,-172 129,-173 139,-175 129,-176 139,-178 129,-179 139,-181 129,-182 139,-184 130,-185 140,-187 130,-188 140,-190 130,-191 140,-193 135,-194 140,-193 130,-194 140,-196 130,-197 141,-199 131,-200 141,-202 131,-203 141,-205 131,-206 141,-208 131,-209 142,-211 132,-212 142,-214 132,-215 142,-217 132,-218 142,-220 132,-221 143,-223 133,-224 143,-227 133,-227 143,-230 133,-230 143,-233 133,-233 144,-236 134,-237 144,-239 134,-240 144,-242 134,-243 144,-245 135,-246 145,-248 135,-249 145,-251 135,-252 145,-254 135,-255 146,-257 136,-258 146,-260 136,-261 146,-263 136,-264 146,-266 136,-267 147,-269 137,-270 147,-272 137,-273 147,-275 137,-276 147,-278 137,-279 148,-281 138,-282 148,-284 138,-285 148,-287 138,-288 148,-290 138,-291 149,-293 139,-294 149,-297 139,-297 149,-300 144,-300 139,-300 149,-300 139,-297 149,-297 140,-294 150,-294 140,-291 150,-291 140,-288 150,-288 140,-285 150,-285 140,-282 150,-282 140,-279 150,-279 140,-276 150,-276 141,-273 151,-273 141,-270 151,-270 141,-267 151,-267 141,-264 151,-264 141,-261 151,-261 141,-258 151,-258 142,-255 151,-255 142,-252 152,-252 142,-249 152,-249 142,-246 152,-246 142,-243 152,-243 142,-240 152,-240 142,-237 152,-237 143,-234 153,-234 143,-231 153,-231 143,-228 153,-228 143,-225 153,-225 143,-222 153,-222 143,-219 153,-219 143,-216 153,-216 144,-213 154,-213 144,-210 154,-210 144,-207 154,-207 144,-204 154,-204 144,-201 154,-201 144,-198 154,-198 145,-195 155,-195 145,-192 155,-192 145,-189 155,-189 145,-186 155,-186 145,-183 155,-183 145,-180 155,-180 145,-176 155,-177 146,-173 156,-174 146,-170 156,-171 146,-167 156,-168 146,-164 156,-165 146,-161 156,-162 146,-158 156,-159 147,-155 156,-156 147,-152 157,-153 147,-149 157,-150 147,-146 157,-147 147,-143 157,-144 147,-140 157,-141 147,-137 157,-138 148,-134 158,-135 148,-131 158,-132 148,-128 158,-129 148,-125 158,-126 148,-122 158,-123 148,-119 158,-120 148,-116 153,-117 158,-116 148,-117 159,-119 149,-120 159,-122 149,-123 159,-125 149,-126 159,-128 149,-129 160,-131 150,-132 160,-135 150,-135 160,-138 150,-138 160,-141 150,-141 160,-144 151,-144 161,-147 151,-147 161,-150 151,-150 161,-153 151,-154 161,-156 151,-157 162,-159 152,-160 162,-162 152,-163 162,-165 152,-166 162,-168 152,-169 163,-171 153,-172 163,-174 153,-175 163,-177 153,-178 163,-180 153,-181 163,-183 153,-184 164,-186 154,-187 164,-189 154,-190 164,-192 154,-193 164,-195 154,-196 165,-198 155,-199 165,-202 155,-202 165,-205 155,-205 165,-208 155,-208 165,-211 155,-211 166,-214 156,-214 166,-217 156,-218 166,-220 156,-221 166,-223 156,-224 167,-226 157,-227 167,-229 157,-230 167,-232 157,-233 167,-235 157,-236 167,-238 157,-239 168,-241 163,-242 158,-241 168,-242 158,-238 168,-239 158,-235 168,-236 158,-232 168,-233 158,-229 168,-230 158,-226 168,-227 158,-223 168,-224 159,-220 169,-221 159,-217 169,-218 159,-214 169,-215 159,-211 169,-212 159,-208 169,-209 159,-205 169,-206 159,-202 169,-203 160,-199 170,-200 160,-196 170,-197 160,-193 170,-194 160,-190 170,-191 160,-187 170,-188 160,-184 170,-185 160,-181 170,-182 160,-178 170,-178 161,-175 171,-175 161,-172 171,-172 161,-169 171,-169 161,-166 171,-166 161,-163 171,-163 161,-160 171,-160 161,-157 171,-157 162,-154 172,-154 162,-151 172,-151 162,-148 172,-148 162,-145 172,-145 162,-142 172,-142 162,-139 172,-139 162,-136 172,-136 162,-133 172,-133 163,-130 173,-130 163,-127 173,-127 163,-124 173,-124 163,-121 173,-121 163,-118 173,-118 163,-115 173,-115 163,-112 173,-112 163,-109 173,-109 164,-106 174,-106 164,-103 174,-103 164,-100 174,-100 164,-97 174,-97 164,-94 174,-94 164,-91 174,-91 164,-88 174,-88 165,-85 175,-85 165,-82 175,-82 165,-79 175,-79 165,-76 175,-76 165,-73 175,-73 165,-70 175,-70 165,-67 175,-67 165,-64 175,-64 166,-61 176,-61 166,-58 176,-58 166,-55 176,-55 166,-52 176,-52 166,-49 176,-49 166,-46 176,-46 166,-43 176,-43 167,-40 177,-40 167,-37 177,-37 167,-34 177,-34 167,-31 172,-31 177,-31 167,-31 177,-34 167,-34 177,-37 167,-37 177,-40 167,-40 177,-43 167,-43 177,-46 167,-46 178,-49 168,-49 178,-52 168,-52 178,-55 168,-55 178,-58 168,-58 178,-61 168,-61 178,-64 168,-64 178,-67 168,-67 178,-70 168,-70 178,-73 168,-73 179,-76 169,-76 179,-79 169,-79 179,-82 169,-82 179,-85 169,-85 179,-88 169,-88 179,-91 169,-91 179,-94 169,-94 179,-97 169,-97 179,-100 169,-100 179,-103 170,-103 180,-106 170,-106 180,-109 170,-109 180,-112 170,-112 180,-115 170,-115 180,-118 170,-118 180,-121 170,-121 180,-124 170,-124 180,-127 170,-127 180,-130 170,-130 181,-133 171,-133 181,-136 171,-136 181,-139 171,-139 181,-142 171,-142 181,-145 171,-145 181,-148 171,-148 181,-151 171,-151 181,-154 171,-154 181,-157 171,-157 182,-160 172,-160 182,-163 172,-163 182,-166 172,-166 182,-169 172,-169 182,-172 172,-172 182,-175 172,-175 182,-178 172,-178 182,-181 172,-181 182,-184 172,-184 183,-187 173,-187 183,-190 173,-190 183,-193 173,-193 183,-196 173,-196 183,-199 173,-199 183,-202 173,-202 183,-205 173,-205 183,-208 173,-208 183,-211 173,-211 183,-214 173,-214 184,-217 174,-217 184,-220 174,-220 184,-223 174,-223 184,-226 174,-226 184,-229 174,-229 184,-232 174,-232 184,-235 174,-235 184,-238 174,-238 184,-241 174,-241 185,-244 175,-244 185,-247 175,-247 185,-250 175,-250 185,-253 175,-253 185,-256 175,-256 185,-259 175,-259 185,-262 175,-262 185,-265 175,-265 185,-268 175,-268 186,-271 176,-271 186,-274 176,-274 186,-277 176,-277 186,-280 176,-280 186,-283 176,-283 186,-286 176,-286 186,-289 181,-289 176,-287 186,-290 177,-285 187,-287 178,-282 188,-284 179,-279 188,-281 179,-276 189,-278 180,-273 190,-275 181,-270 191,-272 182,-267 191,-269 182,-264 192,-267 183,-261 193,-264 184,-258 194,-261 185,-255 194,-258 186,-252 190,-254 195,-252 186,-255 196,-255 187,-258 197,-258 187,-261 198,-261 188,-264 199,-264 189,-267 200,-267 190,-270 201,-270 191,-273 202,-273 192,-276 203,-276 193,-279 203,-279 194,-282 204,-282 200,-284 195,-283 205,-284 195,-280 205,-281 195,-277 205,-278 195,-274 205,-275 195,-271 205,-272 195,-268 205,-269 195,-265 205,-266 195,-262 205,-263 195,-259 205,-260 196,-256 206,-257 196,-253 206,-254 196,-250 206,-251 196,-247 206,-248 196,-244 206,-245 196,-241 206,-242 196,-238 206,-239 196,-235 206,-236 196,-232 206,-233 196,-229 206,-230 197,-226 206,-227 197,-223 207,-224 197,-220 207,-221 197,-217 207,-218 197,-214 207,-215 197,-211 207,-212 197,-208 207,-209 197,-205 207,-206 197,-202 207,-203 197,-199 207,-200 197,-196 207,-197 198,-193 208,-194 198,-190 208,-191 198,-187 208,-188 198,-184 208,-185 198,-181 208,-182 198,-178 208,-179 198,-175 208,-176 198,-172 208,-173 198,-169 208,-170 198,-166 208,-167 199,-163 209,-164 199,-160 209,-160 199,-157 209,-157 199,-154 209,-154 199,-151 209,-151 199,-148 209,-148 199,-145 209,-145 199,-142 209,-142 199,-139 209,-139 199,-136 209,-136 200,-133 210,-133 200,-130 210,-130 200,-127 210,-127 200,-124 210,-124 200,-121 210,-121 200,-118 210,-118 200,-115 210,-115 200,-112 210,-112 200,-109 210,-109 200,-106 210,-106 201,-103 211,-103 201,-100 211,-100 201,-97 211,-97 201,-94 211,-94 201,-91 211,-91 201,-88 211,-88 201,-85 211,-85 201,-82 211,-82 201,-79 211,-79 201,-76 211,-76 202,-73 212,-73 202,-70 212,-70 202,-67 212,-67 202,-64 212,-64 202,-61 212,-61 202,-58 212,-58 202,-55 212,-55 202,-52 212,-52 202,-49 212,-49 202,-46 212,-46 203,-43 213,-43 203,-40 213,-40 203,-37 213,-37 203,-34 213,-34 203,-31 213,-31 203,-28 213,-28 203,-25 213,-25 203,-22 213,-22 203,-19 213,-19 203,-16 213,-16 204,-13 214,-13 204,-10 214,-10 204,-7 214,-7 204,-4 209,-4 214,-4 204,-5 214,-7 204,-8 214,-10 204,-11 215,-13 205,-14 215,-16 205,-17 215,-19 205,-20 215,-22 205,-23 215,-25 206,-26 216,-28 206,-29 216,-31 206,-32 216,-34 206,-35 216,-37 206,-38 217,-40 207,-41 217,-43 207,-44 217,-46 207,-47 217,-49 207,-50 218,-52 208,-53 218,-55 208,-56 218,-58 208,-59 218,-61 208,-62 219,-64 209,-65 219,-67 209,-68 219,-70 209,-71 219,-73 209,-74 220,-76 210,-77 220,-79 210,-80 220,-82 210,-83 220,-85 210,-86 220,-88 210,-89 221,-91 211,-92 221,-94 211,-95 221,-97 211,-98 221,-100 211,-101 222,-103 212,-104 222,-106 212,-107 222,-109 212,-110 222,-112 212,-113 223,-115 213,-116 223,-118 213,-119 223,-121 218,-121 213,-120 223,-123 214,-117 224,-120 215,-114 225,-117 216,-111 226,-114 217,-108 227,-111 218,-105 227,-108 219,-102 228,-105 220,-99 229,-102 221,-96 230,-99 222,-93 231,-96 223,-90 227,-91 226,-86 229,-96 229,-85 232,-95 232,-85 235,-94 235,-84 237,-89 232,-88 241,-89 232,-85 242,-86 233,-81 243,-83 233,-78 243,-80 234,-75 244,-77 235,-72 244,-74 235,-69 245,-71 236,-66 245,-68 236,-63 246,-65 237,-60 247,-62 237,-57 247,-59 238,-54 248,-56 239,-51 248,-53 239,-48 249,-50 240,-45 250,-46 240,-42 250,-43 241,-38 246,-39 251,-38 241,-41 251,-41 242,-44 252,-44 242,-46 253,-47 243,-49 253,-50 244,-52 254,-53 244,-55 255,-56 245,-58 256,-59 246,-61 256,-62 247,-64 257,-65 247,-67 258,-68 248,-70 258,-71 249,-73 259,-74 249,-76 260,-77 255,-78 260,-78 250,-78 260,-81 250,-81 260,-84 250,-84 260,-87 251,-87 261,-90 251,-90 261,-93 251,-93 261,-96 251,-96 261,-99 251,-99 261,-102 251,-102 261,-105 251,-105 262,-108 252,-108 262,-111 252,-111 262,-114 252,-115 262,-117 252,-118 262,-120 252,-121 262,-123 252,-124 263,-126 253,-127 263,-129 253,-130 263,-132 253,-133 263,-135 253,-136 263,-138 253,-139 263,-141 253,-142 264,-144 254,-145 264,-147 254,-148 264,-150 254,-151 264,-153 254,-154 264,-156 254,-157 264,-159 254,-160 265,-162 255,-163 265,-165 255,-166 265,-168 255,-169 265,-171 255,-172 265,-174 255,-175 265,-177 255,-178 266,-180 256,-181 266,-183 256,-184 266,-186 256,-187 266,-189 256,-190 266,-192 256,-193 266,-196 256,-196 267,-199 257,-199 267,-202 257,-202 267,-205 257,-205 267,-208 257,-208 267,-211 257,-211 267,-214 257,-214 268,-217 258,-217 268,-220 258,-220 268,-223 258,-223 268,-226 258,-226 268,-229 258,-229 268,-232 258,-232 269,-235 259,-235 269,-238 259,-238 269,-241 259,-241 269,-244 259,-244 269,-247 264,-247 259,-247 269,-247 259,-244 269,-244 260,-241 270,-241 260,-238 270,-238 260,-235 270,-235 260,-232 270,-232 260,-229 270,-229 260,-226 270,-226 261,-223 271,-223 261,-220 271,-220 261,-217 271,-217 261,-214 271,-214 261,-211 271,-211 261,-208 271,-208 262,-205 272,-205 262,-202 272,-202 262,-199 272,-199 262,-196 272,-196 262,-193 272,-193 262,-190 272,-190 263,-187 273,-187 263,-184 273,-184 263,-181 273,-181 263,-178 273,-178 263,-175 273,-175 263,-172 273,-172 264,-169 274,-169 264,-165 274,-166 264,-162 274,-163 264,-159 274,-160 264,-156 274,-157 264,-153 274,-154 265,-150 274,-151 265,-147 275,-148 265,-144 275,-145 265,-141 275,-142 265,-138 275,-139 265,-135 275,-136 266,-132 275,-133 266,-129 276,-130 266,-126 276,-127 266,-123 276,-124 266,-120 276,-121 266,-117 276,-118 266,-114 276,-115 267,-111 277,-112 267,-108 277,-109 267,-105 277,-106 267,-102 277,-103 267,-99 277,-100 267,-96 277,-97 268,-93 278,-94 268,-90 278,-91 268,-87 278,-88 268,-84 278,-85 268,-81 278,-82 268,-78 273,-78 269,-77 278,-79 269,-74 279,-76 270,-71 280,-73 271,-68 280,-70 271,-65 281,-67 272,-62 282,-64 273,-59 282,-61 273,-56 283,-58 274,-53 284,-55 275,-50 284,-52 275,-47 285,-49 276,-44 286,-46 276,-41 286,-43 277,-38 287,-40 278,-35 283,-36 287,-34 278,-37 288,-37 279,-40 289,-40 280,-43 291,-43 281,-46 292,-46 282,-50 293,-49 283,-53 294,-53 284,-56 295,-56 285,-59 296,-59 286,-62 297,-62 292,-63 296,-60 288,-67 298,-63 291,-69 300,-65 293,-72 303,-68 295,-74 305,-70 301,-74 296,-73 306,-74 297,-70 307,-71 297,-67 307,-68 297,-64 307,-65 298,-61 308,-62 298,-57 308,-59 299,-54 309,-56 299,-51 309,-53 299,-48 309,-49 300,-45 310,-46 300,-42 310,-43 301,-39 311,-40 301,-36 311,-37 301,-33 311,-34 302,-30 312,-31 302,-27 312,-28 303,-24 313,-25 303,-20 313,-22 303,-17 313,-19 304,-14 314,-16 304,-11 314,-13 305,-8 315,-9 305,-5 315,-6 305,-2 310,-3 315,-2 305,-3 315,-5 305,-6 316,-8 306,-9 316,-11 306,-12 316,-14 306,-15 316,-17 306,-18 316,-20 306,-21 316,-23 306,-24 316,-26 306,-27 316,-29 306,-30 316,-33 306,-33 316,-36 306,-36 317,-39 307,-39 317,-42 307,-42 317,-45 307,-45 317,-48 307,-48 317,-51 307,-51 317,-54 307,-54 317,-57 307,-57 317,-60 307,-60 317,-63 307,-63 317,-66 307,-66 318,-69 308,-69 318,-72 308,-72 318,-75 308,-75 318,-78 308,-78 318,-81 308,-81 318,-84 308,-84 318,-87 308,-87 318,-90 308,-90 318,-93 308,-93 318,-96 308,-96 319,-99 309,-99 319,-102 309,-102 319,-105 309,-105 319,-108 309,-108 319,-111 309,-111 319,-114 309,-114 319,-117 309,-117 319,-120 309,-120 319,-123 309,-123 319,-126 309,-126 320,-129 310,-129 320,-132 310,-132 320,-135 310,-135 320,-138 310,-138 320,-141 310,-141 320,-144 310,-144 320,-147 310,-147 320,-150 310,-150 320,-153 310,-153 320,-156 310,-156 320,-159 310,-159 321,-162 311,-162 321,-165 311,-165 321,-168 311,-168 321,-171 311,-171 321,-174 311,-174 321,-177 311,-177 321,-180 311,-180 321,-183 311,-183 321,-186 311,-186 321,-189 311,-189 322,-192 312,-192 322,-195 312,-195 322,-198 312,-198 322,-201 312,-201 322,-204 312,-204 322,-207 312,-207 322,-210 312,-210 322,-213 312,-213 322,-216 312,-216 322,-219 312,-219 323,-222 313,-222 323,-225 313,-225 323,-228 313,-228 323,-231 313,-231 323,-234 313,-234 323,-237 313,-237 323,-240 313,-240 323,-243 313,-243 323,-246 313,-246 323,-249 313,-249 324,-252 314,-252 324,-255 314,-255 324,-258 314,-258 324,-261 314,-261 324,-264 314,-264 324,-267 314,-267 324,-270 314,-270 324,-273 314,-273 324,-276 314,-276 324,-279 314,-279 325,-282 315,-282 325,-285 320,-285 315,-284 325,-286 315,-281 325,-283 315,-278 325,-279 316,-275 326,-276 316,-272 326,-273 316,-269 326,-270 317,-266 327,-267 317,-263 327,-264 317,-260 327,-261 318,-257 328,-258 318,-254 328,-255 319,-251 328,-252 319,-248 329,-249 319,-245 329,-246 320,-242 330,-243 320,-239 330,-240 320,-236 330,-237 321,-233 331,-234 321,-230 331,-231 321,-227 331,-228 322,-224 332,-225 322,-221 332,-222 322,-217 332,-219 323,-214 333,-216 323,-211 333,-213 324,-208 333,-209 324,-205 329,-206 324,-205 334,-206 324,-202 334,-203 324,-199 334,-200 325,-196 335,-197 325,-193 335,-194 325,-190 335,-191 325,-187 335,-188 325,-184 335,-185 326,-181 336,-182 326,-178 336,-179 326,-175 336,-176 326,-172 336,-173 327,-169 337,-170 327,-166 337,-167 327,-163 337,-164 327,-160 337,-161 328,-157 338,-158 328,-154 338,-155 328,-151 338,-152 328,-148 338,-149 328,-145 338,-146 329,-142 339,-143 329,-139 339,-140 329,-136 339,-137 329,-133 339,-134 330,-130 340,-131 330,-127 340,-128 330,-124 340,-124 330,-121 340,-121 331,-118 341,-118 331,-115 341,-115 331,-112 341,-112 331,-109 341,-109 331,-106 341,-106 332,-103 342,-103 332,-100 342,-100 332,-96 342,-97 332,-93 342,-94 333,-90 343,-91 333,-87 343,-88 333,-84 338,-85 343,-85 333,-85 343,-88 333,-88 343,-91 333,-91 344,-94 334,-94 344,-97 334,-97 344,-100 334,-100 344,-103 334,-103 344,-106 334,-106 344,-109 334,-109 344,-112 334,-112 345,-115 335,-115 345,-118 335,-118 345,-121 335,-121 345,-124 335,-125 345,-127 335,-128 345,-130 335,-131 345,-133 335,-134 346,-136 336,-137 346,-139 336,-140 346,-142 336,-143 346,-145 336,-146 346,-148 336,-149 346,-151 336,-152 346,-154 336,-155 347,-158 337,-158 347,-161 337,-161 347,-164 337,-164 347,-167 337,-167 347,-170 337,-170 347,-173 337,-173 347,-176 337,-176 348,-179 338,-179 348,-182 338,-182 348,-185 338,-185 348,-188 338,-188 348,-191 338,-191 348,-194 338,-194 348,-197 339,-198 349,-200 339,-201 349,-203 339,-204 349,-206 339,-207 349,-209 339,-210 349,-212 339,-213 349,-215 339,-216 350,-218 340,-219 350,-221 340,-222 350,-224 340,-225 350,-227 340,-228 350,-231 340,-231 350,-234 340,-234 350,-237 340,-237 351,-240 341,-240 351,-243 341,-243 351,-246 341,-246 351,-249 341,-249 351,-252 341,-252 351,-255 341,-255 351,-258 341,-258 352,-261 342,-261 352,-264 342,-264 352,-267 342,-267 352,-270 342,-271 352,-273 342,-274 352,-276 347,-276 342,-276 352,-277 343,-273 353,-274 343,-270 353,-271 343,-267 353,-268 343,-264 353,-265 344,-261 354,-262 344,-258 354,-259 344,-255 354,-256 344,-252 354,-253 345,-249 355,-250 345,-246 355,-247 345,-243 355,-244 345,-240 355,-241 346,-237 356,-238 346,-234 356,-235 346,-231 356,-232 346,-228 356,-229 347,-225 357,-226 347,-222 357,-223 347,-219 357,-220 347,-216 357,-217 348,-213 358,-214 348,-210 358,-211 348,-207 358,-208 348,-204 358,-205 349,-201 359,-202 349,-198 359,-199 349,-195 359,-196 350,-192 359,-193 350,-189 360,-189 350,-186 360,-186 350,-183 360,-183 351,-180 360,-180 351,-177 361,-177 351,-174 361,-174 351,-171 361,-171 352,-168 357,-168 352,-168 362,-168 352,-164 362,-165 352,-161 362,-162 352,-158 362,-159 353,-155 363,-156 353,-152 363,-153 353,-149 363,-150 354,-146 364,-147 354,-143 364,-144 354,-140 364,-141 355,-137 365,-138 355,-134 365,-135 355,-131 365,-132 356,-128 366,-129 356,-125 366,-126 356,-122 366,-123 356,-119 366,-119 357,-115 367,-116 357,-112 367,-113 357,-109 367,-110 358,-106 368,-107 358,-103 368,-104 358,-100 368,-101 359,-97 369,-98 359,-94 369,-95 359,-91 369,-92 360,-88 370,-89 360,-85 370,-86 360,-82 370,-83 360,-79 370,-80 361,-76 366,-76 361,-75 371,-77 361,-72 371,-74 362,-69 372,-71 362,-66 372,-68 363,-63 373,-65 363,-60 373,-61 364,-57 374,-58 364,-54 374,-55 365,-51 375,-52 365,-47 375,-49 366,-44 376,-46 366,-41 376,-43 367,-38 377,-40 367,-35 377,-37 368,-32 378,-34 368,-29 378,-30 369,-26 378,-27 369,-23 379,-24 370,-20 379,-21 370,-16 375,-17 380,-17 370,-17 380,-20 370,-20 380,-23 370,-23 380,-26 370,-26 380,-29 370,-30 381,-32 371,-33 381,-35 371,-36 381,-38 371,-39 381,-41 371,-42 381,-44 371,-45 381,-47 371,-48 381,-50 371,-51 381,-53 371,-54 381,-56 371,-57 382,-59 372,-60 382,-62 372,-63 382,-65 372,-66 382,-68 372,-69 382,-71 372,-72 382,-74 372,-75 382,-77 372,-78 382,-80 372,-81 382,-83 372,-84 383,-86 373,-87 383,-89 373,-90 383,-93 373,-93 383,-96 373,-96 383,-99 373,-99 383,-102 373,-102 383,-105 373,-105 383,-108 373,-108 383,-111 373,-111 384,-114 374,-114 384,-117 374,-117 384,-120 374,-120 384,-123 374,-123 384,-126 374,-126 384,-129 374,-129 384,-132 374,-132 384,-135 374,-135 384,-138 374,-138 385,-141 375,-141 385,-144 375,-144 385,-147 375,-147 385,-150 375,-150 385,-153 375,-153 385,-156 375,-156 385,-159 375,-159 385,-162 375,-162 385,-165 375,-165 386,-168 376,-168 386,-171 376,-171 386,-174 376,-174 386,-177 376,-177 386,-180 376,-180 386,-183 376,-183 386,-186 376,-186 386,-189 376,-189 386,-192 376,-192 387,-195 377,-196 387,-198 377,-199 387,-201 377,-202 387,-204 377,-205 387,-207 377,-208 387,-210 377,-211 387,-213 377,-214 387,-216 377,-217 387,-219 377,-220 388,-222 378,-223 388,-225 378,-226 388,-228 378,-229 388,-231 378,-232 388,-234 378,-235 388,-237 378,-238 388,-240 378,-241 388,-243 378,-244 388,-246 378,-247 389,-249 379,-250 389,-252 379,-253 389,-255 379,-256 389,-259 379,-259 389,-262 379,-262 389,-265 379,-265 389,-268 384,-268 379,-268 389,-268 379,-264 389,-265 380,-261 390,-262 380,-258 390,-259 380,-255 390,-256 380,-252 390,-253 380,-249 390,-250 380,-246 390,-247 380,-243 390,-244 381,-240 391,-241 381,-237 391,-238 381,-234 391,-235 381,-231 391,-232 381,-228 391,-229 381,-225 391,-225 381,-222 391,-222 382,-219 391,-219 382,-216 392,-216 382,-213 392,-213 382,-210 392,-210 382,-207 392,-207 382,-204 392,-204 382,-201 392,-201 383,-198 392,-198 383,-195 393,-195 383,-192 393,-192 383,-189 393,-189 383,-186 393,-186 383,-183 393,-183 383,-180 393,-180 383,-176 393,-177 384,-173 394,-174 384,-170 394,-171 384,-167 394,-168 384,-164 394,-165 384,-161 394,-162 384,-158 394,-159 384,-155 394,-156 385,-152 395,-153 385,-149 395,-150 385,-146 395,-147 385,-143 395,-144 385,-140 395,-141 385,-137 395,-137 385,-134 395,-134 386,-131 396,-131 386,-128 396,-128 386,-125 396,-125 386,-122 396,-122 386,-119 396,-119 386,-116 396,-116 386,-113 396,-113 387,-110 397,-110 387,-107 397,-107 387,-104 397,-104 387,-101 397,-101 387,-98 397,-98 387,-95 397,-95 387,-92 397,-92 388,-88 398,-89 388,-85 398,-86 388,-82 398,-83 388,-79 398,-80 388,-76 398,-77 388,-73 398,-74 388,-70 393,-71 389,-70 398,-71 389,-66 399,-68 390,-63 400,-65 390,-60 400,-62 391,-57 401,-59 391,-54 401,-56 392,-51 402,-53 393,-48 402,-50 393,-45 403,-46 394,-42 404,-43 394,-38 404,-40 395,-35 405,-37 395,-32 405,-34 396,-29 406,-31 397,-26 406,-28 397,-23 407,-25 398,-20 403,-21 399,-17 406,-24 402,-15 408,-22 404,-13 411,-20 406,-11 413,-19 409,-9 412,-13 417,-13 407,-13 417,-16 407,-16 417,-19 407,-19 417,-22 407,-22 417,-25 407,-25 417,-28 407,-28 418,-31 408,-31 418,-34 408,-34 418,-37 408,-37 418,-40 408,-40 418,-43 408,-43 418,-46 408,-46 418,-49 408,-49 418,-52 408,-52 418,-55 408,-55 419,-58 409,-58 419,-61 409,-61 419,-64 409,-64 419,-67 409,-67 419,-70 409,-70 419,-73 409,-73 419,-76 409,-76 419,-79 409,-79 419,-82 409,-82 420,-85 410,-85 420,-88 410,-88 420,-91 410,-91 420,-94 410,-94 420,-97 410,-97 420,-100 410,-100 420,-103 410,-103 420,-106 410,-106 420,-109 410,-110 421,-112 411,-113 421,-115 411,-116 421,-118 411,-119 421,-121 411,-122 421,-124 411,-125 421,-127 411,-128 421,-130 411,-131 421,-133 411,-134 421,-136 411,-137 422,-139 412,-140 422,-142 412,-143 422,-145 412,-146 422,-148 412,-149 422,-151 412,-152 422,-154 412,-155 422,-157 412,-158 422,-160 412,-161 422,-163 412,-164 423,-166 413,-167 423,-169 413,-170 423,-173 413,-173 423,-176 413,-176 423,-179 413,-179 423,-182 413,-182 423,-185 413,-185 423,-188 413,-188 423,-191 413,-191 424,-194 414,-194 424,-197 414,-197 424,-200 414,-200 424,-203 414,-203 424,-206 414,-206 424,-209 414,-209 424,-212 414,-212 424,-215 414,-215 424,-218 414,-218 425,-221 415,-221 425,-224 415,-224 425,-227 415,-227 425,-230 415,-230 425,-233 415,-233 425,-236 415,-236 425,-239 415,-239 425,-242 415,-242 425,-245 415,-245 425,-248 415,-248 426,-251 416,-251 426,-254 416,-254 426,-257 416,-257 426,-260 416,-260 426,-263 416,-263 426,-266 421,-266 416,-266 426,-266 416,-263 426,-263 416,-260 426,-260 417,-257 427,-257 417,-254 427,-254 417,-251 427,-251 417,-248 427,-248 417,-245 427,-245 417,-242 427,-242 417,-239 427,-239 418,-236 428,-236 418,-233 428,-233 418,-230 428,-230 418,-227 428,-227 418,-224 428,-224 418,-221 428,-221 418,-218 428,-218 419,-215 429,-215 419,-212 429,-212 419,-209 429,-209 419,-206 429,-206 419,-203 429,-203 419,-200 429,-200 419,-197 429,-197 420,-194 430,-194 420,-191 430,-191 420,-188 430,-188 420,-185 430,-185 420,-182 430,-182 420,-179 430,-179 420,-176 430,-176 420,-172 430,-173 421,-169 431,-170 421,-166 431,-167 421,-163 431,-164 421,-160 431,-161 421,-157 431,-158 421,-154 431,-155 421,-151 431,-152 422,-148 432,-149 422,-145 432,-146 422,-142 432,-143 422,-139 432,-140 422,-136 432,-137 422,-133 432,-134 422,-130 432,-131 423,-127 433,-128 423,-124 433,-125 423,-121 433,-122 423,-118 433,-119 423,-115 433,-116 423,-112 433,-113 423,-109 433,-110 424,-106 434,-107 424,-103 434,-104 424,-100 434,-101 424,-97 434,-98 424,-94 434,-95 424,-91 434,-91 424,-88 434,-88 425,-85 435,-85 425,-82 435,-82 425,-79 435,-79 425,-76 435,-76 425,-73 435,-73 425,-70 435,-70 425,-67 430,-67 435,-66 425,-68 436,-69 426,-71 436,-72 426,-74 436,-75 427,-77 437,-78 427,-80 437,-81 427,-83 438,-84 428,-86 438,-87 428,-89 438,-90 429,-92 439,-93 429,-95 439,-96 429,-98 440,-99 430,-101 440,-102 430,-104 440,-105 430,-107 441,-108 431,-110 441,-111 431,-113 441,-114 432,-116 442,-117 432,-118 442,-120 432,-121 443,-123 433,-124 443,-126 433,-127 443,-129 434,-130 444,-132 434,-133 444,-135 434,-136 445,-138 440,-139 435,-138 445,-139 435,-135 445,-136 435,-132 445,-133 435,-129 445,-130 435,-126 445,-127 436,-123 446,-124 436,-120 446,-121 436,-117 446,-118 436,-114 446,-115 436,-111 446,-112 437,-108 447,-109 437,-105 447,-106 437,-102 447,-103 437,-99 447,-100 437,-96 447,-97 438,-93 448,-94 438,-90 448,-91 438,-87 448,-88 438,-84 448,-85 439,-81 449,-82 439,-78 449,-79 439,-75 449,-76 439,-72 449,-73 439,-69 449,-70 440,-66 450,-67 440,-63 450,-64 440,-60 450,-61 440,-57 450,-58 440,-54 450,-55 441,-51 451,-52 441,-48 451,-49 441,-45 451,-46 441,-42 451,-43 441,-39 451,-40 442,-36 452,-37 442,-33 452,-34 442,-30 452,-31 442,-27 452,-28 442,-24 452,-25 443,-21 453,-22 443,-18 453,-19 443,-15 453,-16 443,-12 453,-13 443,-9 453,-10 444,-6 454,-7 444,-3 449,-3 454,-3 444,-4 454,-6 444,-7 454,-9 444,-10 455,-12 445,-13 455,-15 445,-16 455,-18 445,-19 455,-21 445,-22 456,-24 446,-25 456,-27 446,-28 456,-30 446,-31 457,-33 447,-34 457,-36 447,-37 457,-39 447,-40 457,-43 447,-43 458,-46 448,-46 458,-49 448,-49 458,-52 448,-53 458,-55 448,-56 459,-58 449,-59 459,-61 449,-62 459,-64 449,-65 460,-67 450,-68 460,-70 450,-71 460,-73 450,-74 460,-76 450,-77 461,-79 451,-80 461,-82 451,-83 461,-85 451,-86 461,-88 451,-89 462,-91 452,-92 462,-94 452,-95 462,-97 452,-98 463,-100 453,-101 463,-103 453,-104 463,-106 458,-107 462,-103 455,-110 464,-106 457,-113 466,-108 459,-115 469,-110 461,-117 471,-113 467,-116 472,-116 462,-117 473,-119 463,-120 473,-122 463,-123 473,-125 463,-126 474,-128 464,-129 474,-131 464,-132 474,-134 464,-135 475,-137 465,-138 475,-140 465,-141 475,-143 465,-144 476,-146 466,-147 476,-149 466,-150 476,-152 466,-153 477,-155 467,-157 477,-158 467,-160 477,-162 467,-163 478,-165 468,-166 478,-168 468,-169 478,-171 468,-172 479,-174 469,-175 479,-177 469,-178 479,-180 470,-181 480,-183 470,-184 480,-186 470,-187 480,-189 471,-190 481,-192 471,-193 481,-195 471,-196 482,-198 477,-199 472,-198 482,-199 472,-195 482,-196 472,-192 482,-193 472,-189 482,-190 473,-186 483,-187 473,-183 483,-184 473,-180 483,-181 474,-177 484,-178 474,-174 484,-175 474,-171 484,-172 475,-168 484,-169 475,-165 485,-166 475,-162 485,-163 475,-159 485,-160 476,-156 486,-157 476,-153 486,-154 476,-150 486,-151 477,-147 487,-148 477,-144 487,-145 477,-141 487,-142 478,-138 487,-139 478,-135 488,-136 478,-132 488,-133 478,-129 488,-130 479,-126 489,-127 479,-123 489,-124 479,-120 489,-121 480,-117 490,-118 480,-114 490,-115 480,-111 490,-112 480,-108 490,-109 481,-105 486,-106" fill="none" stroke="#bcf4fc" stroke-width="3" /><path d="M 85,-330 75,-330 85,-333 75,-333 85,-336 75,-336 85,-339 75,-339 85,-342 75,-342 85,-345 75,-345 85,-348 75,-348 85,-351 75,-351 85,-354 75,-354 85,-357 75,-357 85,-360 75,-360 85,-363 75,-363 85,-366 75,-366 85,-369 75,-369 85,-372 80,-373 76,-370 84,-375 77,-367 86,-372 79,-365 87,-370 80,-362 89,-367 82,-359 91,-364 84,-357 92,-362 85,-354 94,-359 87,-351 95,-356 88,-349 97,-354 90,-346 99,-351 92,-343 100,-349 93,-341 102,-346 95,-338 103,-343 96,-335 105,-341 98,-333 107,-338 100,-330 108,-335 101,-327 106,-330 111,-330 101,-330 111,-333 101,-333 111,-336 101,-336 111,-339 101,-339 111,-342 101,-342 111,-345 101,-345 111,-348 101,-348 111,-351 101,-351 111,-354 101,-354 111,-357 101,-357 111,-360 101,-360 111,-363 101,-363 111,-366 101,-366 111,-369 101,-369 111,-372 106,-373" fill="none" stroke="#bcf4fc" stroke-width="3" /><path d="M 126,-372 136,-373 126,-369 136,-369 126,-366 136,-366 126,-363 136,-363 126,-360 136,-360 126,-357 136,-357 126,-354 136,-354 126,-351 136,-351 126,-348 136,-348 126,-345 136,-345 126,-342 136,-342 126,-338 136,-338 126,-335 131,-335 127,-332 135,-339 130,-329 137,-336 133,-326 136,-330 136,-325 136,-335 139,-325 139,-335 142,-325 142,-335 145,-325 145,-335 148,-325 148,-335 151,-325 151,-335 155,-325 155,-335 158,-325 158,-330 161,-326 154,-334 164,-329 157,-336 166,-332 163,-335 168,-335 158,-335 168,-338 158,-338 168,-342 158,-342 168,-345 158,-345 168,-348 158,-348 168,-351 158,-351 168,-354 158,-354 168,-357 158,-357 168,-360 158,-360 168,-363 158,-363 168,-366 158,-366 168,-369 158,-369 168,-372 163,-373" fill="none" stroke="#bcf4fc" stroke-width="3" /><path d="M 193,-330 183,-330 193,-333 183,-333 193,-336 183,-336 193,-339 183,-339 193,-342 183,-342 193,-345 183,-345 193,-348 183,-348 193,-351 183,-351 193,-354 183,-354 193,-357 183,-357 193,-360 183,-360 193,-363 183,-363 193,-366 183,-366 193,-369 183,-369 193,-372 188,-373 184,-369 192,-376 186,-367 194,-373 188,-365 196,-371 190,-362 198,-369 192,-360 200,-366 194,-358 202,-364 196,-355 204,-361 198,-353 206,-359 200,-350 207,-357 201,-348 205,-351 209,-348 201,-354 211,-350 203,-357 213,-353 205,-359 215,-355 207,-361 217,-358 209,-364 219,-360 211,-366 221,-362 213,-369 223,-365 215,-371 224,-367 217,-373 226,-369 222,-373 217,-372 227,-373 217,-369 227,-369 217,-366 227,-366 217,-363 227,-363 217,-360 227,-360 217,-357 227,-357 217,-354 227,-354 217,-351 227,-351 217,-348 227,-348 217,-345 227,-345 217,-342 227,-342 217,-339 227,-339 217,-336 227,-336 217,-333 227,-333 217,-330 222,-330" fill="none" stroke="#bcf4fc" stroke-width="3" /><path d="M 253,-330 243,-330 253,-333 243,-333 253,-336 243,-336 253,-339 243,-339 253,-342 243,-342 253,-345 243,-345 253,-348 243,-348 253,-351 243,-351 253,-354 243,-354 253,-357 243,-357 253,-360 243,-360 253,-363 243,-363 253,-366 243,-366 253,-369 243,-369 253,-372 248,-373 248,-368 248,-378 251,-368 251,-378 255,-368 255,-378 258,-368 258,-378 261,-368 261,-378 264,-368 264,-378 268,-368 268,-378 271,-368 271,-378 274,-368 274,-373 271,-369 278,-376 274,-366 281,-373 276,-364 280,-367 275,-367 285,-367 275,-364 285,-364 275,-360 285,-360 275,-357 280,-357 276,-360 283,-353 274,-357 281,-350 271,-355 274,-351 274,-356 274,-346 271,-356 271,-346 268,-356 268,-346 264,-356 264,-346 261,-356 261,-346 258,-356 258,-346 255,-356 255,-346 251,-356 251,-346 248,-356 248,-351 248,-346 248,-356 251,-346 251,-356 255,-346 255,-356 258,-346 258,-356 261,-346 261,-356 264,-346 264,-356 268,-346 268,-356 271,-346 271,-356 274,-346 274,-351 271,-348 278,-355 274,-345 281,-352 276,-342 280,-346 275,-346 285,-346 275,-342 285,-342 275,-339 285,-339 275,-335 280,-335 276,-339 283,-332 274,-336 281,-329 271,-334 274,-330 274,-335 274,-325 271,-335 271,-325 268,-335 268,-325 264,-335 264,-325 261,-335 261,-325 258,-335 258,-325 255,-335 255,-325 251,-335 251,-325 248,-335 248,-330" fill="none" stroke="#bcf4fc" stroke-width="3" /><path d="M 339,-378 339,-368 336,-378 336,-368 333,-378 333,-368 330,-378 330,-368 327,-378 327,-368 324,-378 324,-368 321,-378 321,-368 318,-378 318,-368 315,-378 315,-368 311,-378 311,-368 308,-378 308,-368 305,-378 305,-373 300,-372 310,-373 300,-369 310,-369 300,-366 310,-366 300,-363 310,-363 300,-360 310,-360 300,-357 310,-357 300,-354 310,-354 300,-351 305,-351 305,-346 305,-356 308,-346 308,-356 312,-346 312,-356 315,-346 315,-356 318,-346 318,-356 321,-346 321,-356 324,-346 324,-356 328,-346 328,-356 331,-346 331,-351 331,-356 331,-346 328,-356 328,-346 324,-356 324,-346 321,-356 321,-346 318,-356 318,-346 315,-356 315,-346 312,-356 312,-346 308,-356 308,-346 305,-356 305,-351 300,-351 310,-351 300,-348 310,-348 300,-345 310,-345 300,-342 310,-342 300,-339 310,-339 300,-336 310,-336 300,-333 310,-333 300,-330 305,-330 305,-325 305,-335 308,-325 308,-335 311,-325 311,-335 315,-325 315,-335 318,-325 318,-335 321,-325 321,-335 324,-325 324,-335 327,-325 327,-335 330,-325 330,-335 333,-325 333,-335 336,-325 336,-335 339,-325 339,-330" fill="none" stroke="#bcf4fc" stroke-width="3" /><path d="M 370,-330 360,-330 370,-333 360,-333 370,-336 360,-336 370,-339 360,-339 370,-342 360,-342 370,-345 360,-345 370,-348 360,-348 370,-351 360,-351 370,-354 360,-354 370,-357 360,-357 370,-360 360,-360 370,-363 360,-363 370,-366 360,-366 370,-369 360,-369 370,-372 365,-373 365,-368 365,-378 368,-368 368,-378 371,-368 371,-378 375,-368 375,-378 378,-368 378,-378 381,-368 381,-378 385,-368 385,-378 388,-368 388,-378 391,-368 391,-373 388,-369 395,-376 390,-366 398,-373 393,-364 397,-367 392,-367 402,-367 392,-364 402,-364 392,-360 402,-360 392,-357 397,-357 393,-360 400,-353 390,-357 398,-350 388,-355 391,-351 391,-356 391,-346 388,-356 388,-346 385,-356 385,-346 381,-356 381,-346 378,-356 378,-346 375,-356 375,-346 371,-356 371,-346 368,-356 368,-346 365,-356 365,-351 362,-347 368,-355 365,-345 370,-354 367,-344 373,-352 370,-342 375,-350 373,-340 378,-348 375,-338 381,-347 378,-336 383,-345 381,-335 386,-343 383,-333 389,-341 386,-331 391,-339 389,-329 394,-338 391,-328 397,-336 394,-326 397,-330" fill="none" stroke="#bcf4fc" stroke-width="3" /><path d="M 419,-332 426,-339 421,-329 428,-336 424,-326 427,-330 427,-325 427,-335 430,-325 430,-335 434,-325 434,-335 437,-325 437,-335 440,-325 440,-335 443,-325 443,-335 446,-325 446,-335 449,-325 449,-330 452,-326 445,-334 455,-329 448,-336 458,-332 454,-335 459,-335 449,-335 459,-339 449,-339 459,-342 449,-342 459,-346 454,-346 458,-349 450,-343 457,-351 448,-346 455,-354 451,-351 451,-356 451,-346 448,-356 448,-346 445,-356 445,-346 442,-356 442,-346 439,-356 439,-346 436,-356 436,-346 433,-356 433,-346 430,-356 430,-351 433,-355 426,-348 430,-357 423,-350 428,-360 424,-357 429,-357 419,-357 429,-360 419,-360 429,-364 419,-364 429,-367 424,-367 428,-364 421,-371 430,-366 423,-373 433,-369 430,-373 430,-368 430,-378 433,-368 433,-378 436,-368 436,-378 439,-368 439,-378 442,-368 442,-378 445,-368 445,-378 448,-368 448,-378 451,-368 451,-373 447,-369 454,-376 450,-366 457,-373 453,-364 456,-367" fill="none" stroke="#bcf4fc" stroke-width="3" /></svg>